<?xml version="1.0" standalone="no"?><!DOCTYPE svg PUBLIC "-//W3C//DTD SVG 1.1//EN" "http://www.w3.org/Graphics/SVG/1.1/DTD/svg11.dtd"><svg t="1623936170442" class="icon" viewBox="0 0 1024 1024" version="1.1" xmlns="http://www.w3.org/2000/svg" p-id="1923" xmlns:xlink="http://www.w3.org/1999/xlink" width="200" height="200"><defs><style type="text/css"></style></defs><path d="M51.2 218.764h926.255v586.472H51.2V218.764z" fill="#FD0013" p-id="1924"></path><path d="M195.49 302.545l27.928 55.855 60.51 13.964-46.546 41.89 9.309 60.51-51.2-27.928-55.855 27.928 9.31-60.51-46.546-41.89 60.51-9.31 32.58-60.509z m228.074 130.328l9.309 13.963 18.618 4.655-18.618 13.964 4.654 18.618-13.963-9.31-13.964 9.31v-18.618l-13.964-13.964 18.619-4.655 9.309-13.963z m-60.51-148.946v18.618l13.964 9.31-13.963 4.654-4.655 18.618-13.964-13.963-13.963 4.654 9.309-13.963-9.31-18.619 18.619 4.655 13.964-13.964z m79.128 69.818l-9.31 18.619 4.655 13.963-13.963-4.654-13.964 13.963v-18.618l-18.618-9.309 18.618-4.654 4.655-18.619 9.309 13.964 18.618-4.655z m-60.51 172.219l-18.617 9.309-4.655 18.618-13.964-13.964h-18.618l9.31-13.963L330.472 512l18.618 4.655 13.964-13.964v18.618l18.618 4.655z" fill="#FFFD43" p-id="1925"></path></svg>