<?xml version="1.0" encoding="utf-8"?>
<!-- Generator: Adobe Illustrator 22.0.0, SVG Export Plug-In . SVG Version: 6.00 Build 0)  -->
<svg version="1.1" id="图层_1" xmlns="http://www.w3.org/2000/svg" xmlns:xlink="http://www.w3.org/1999/xlink" x="0px" y="0px"
	 viewBox="0 0 1024 1024" style="enable-background:new 0 0 1024 1024;" xml:space="preserve">
<style type="text/css">
	.st0{fill:#CCDAFE;}
	.st1{fill:#A8BEEF;}
	.st2{fill:url(#SVGID_1_);}
	.st3{fill:#3B6CE4;}
	.st4{fill:#2355B7;}
	.st5{fill:#FFFFFF;}
	.st6{fill:#5D94FA;}
	.st7{fill:#4A7CCC;}
	.st8{fill:url(#SVGID_2_);}
	.st9{fill:url(#SVGID_3_);}
	.st10{fill:#FF7F2A;}
	.st11{fill:url(#SVGID_4_);}
	.st12{fill:#183F8C;}
	.st13{fill:#353535;}
	.st14{fill:#274DA0;}
	.st15{fill:#DBEEFE;}
	.st16{fill:#B9D8ED;}
	.st17{fill:#FDCACA;}
	.st18{fill:#63393F;}
</style>
<g>
	<g>
		<polygon class="st0" points="162.9,716.1 162.9,510.3 245.4,510.3 245.4,362.1 386,362.1 386,716.1 		"/>
		<g>
			<rect x="259.3" y="386.6" class="st1" width="28.8" height="23"/>
			<rect x="302.5" y="386.6" class="st1" width="28.8" height="23"/>
			<rect x="345.7" y="386.6" class="st1" width="28.8" height="23"/>
			<rect x="259.3" y="422.6" class="st1" width="28.8" height="23"/>
			<rect x="302.5" y="422.6" class="st1" width="28.8" height="23"/>
			<rect x="345.7" y="422.6" class="st1" width="28.8" height="23"/>
			<rect x="259.3" y="458.5" class="st1" width="28.8" height="23"/>
			<rect x="302.5" y="458.5" class="st1" width="28.8" height="23"/>
			<rect x="345.7" y="458.5" class="st1" width="28.8" height="23"/>
			<rect x="259.3" y="494.5" class="st1" width="28.8" height="23"/>
			<rect x="302.5" y="494.5" class="st1" width="28.8" height="23"/>
			<rect x="345.7" y="494.5" class="st1" width="28.8" height="23"/>
			<rect x="259.3" y="530.5" class="st1" width="28.8" height="23"/>
			<rect x="216.2" y="530.5" class="st1" width="28.8" height="23"/>
			<rect x="173" y="530.5" class="st1" width="28.8" height="23"/>
			<rect x="302.5" y="530.5" class="st1" width="28.8" height="23"/>
			<rect x="345.7" y="530.5" class="st1" width="28.8" height="23"/>
			<rect x="259.3" y="566.5" class="st1" width="28.8" height="23"/>
			<rect x="216.2" y="566.5" class="st1" width="28.8" height="23"/>
			<rect x="173" y="566.5" class="st1" width="28.8" height="23"/>
			<rect x="302.5" y="566.5" class="st1" width="28.8" height="23"/>
			<rect x="345.7" y="566.5" class="st1" width="28.8" height="23"/>
			<rect x="259.3" y="602.4" class="st1" width="28.8" height="23"/>
			<rect x="216.2" y="602.4" class="st1" width="28.8" height="23"/>
			<rect x="173" y="602.4" class="st1" width="28.8" height="23"/>
			<rect x="302.5" y="602.4" class="st1" width="28.8" height="23"/>
			<rect x="345.7" y="602.4" class="st1" width="28.8" height="23"/>
			<rect x="259.3" y="638.4" class="st1" width="28.8" height="23"/>
			<rect x="216.2" y="638.4" class="st1" width="28.8" height="23"/>
			<rect x="173" y="638.4" class="st1" width="28.8" height="23"/>
			<rect x="302.5" y="638.4" class="st1" width="28.8" height="23"/>
			<rect x="345.7" y="638.4" class="st1" width="28.8" height="23"/>
		</g>
	</g>
	<g>
		<polygon class="st0" points="634.9,713.3 634.9,583.7 698.3,583.7 698.3,434.1 794.7,434.1 794.7,504.6 850.8,504.6 850.8,713.3 
					"/>
		<g>
			<rect x="712.7" y="452.8" class="st1" width="28.8" height="23"/>
			<rect x="753" y="452.8" class="st1" width="28.8" height="23"/>
			<rect x="712.7" y="596.7" class="st1" width="28.8" height="23"/>
			<rect x="672.4" y="596.7" class="st1" width="28.8" height="23"/>
			<rect x="672.4" y="632.7" class="st1" width="28.8" height="23"/>
			<rect x="753" y="596.7" class="st1" width="28.8" height="23"/>
			<rect x="712.7" y="488.8" class="st1" width="28.8" height="23"/>
			<rect x="753" y="488.8" class="st1" width="28.8" height="23"/>
			<rect x="712.7" y="524.7" class="st1" width="28.8" height="23"/>
			<rect x="753" y="524.7" class="st1" width="28.8" height="23"/>
			<rect x="793.2" y="524.7" class="st1" width="28.8" height="23"/>
			<rect x="793.2" y="560.7" class="st1" width="28.8" height="23"/>
			<rect x="793.2" y="596.7" class="st1" width="28.8" height="23"/>
			<rect x="793.2" y="632.7" class="st1" width="28.8" height="23"/>
			<rect x="712.7" y="560.7" class="st1" width="28.8" height="23"/>
			<rect x="753" y="560.7" class="st1" width="28.8" height="23"/>
			<rect x="712.7" y="632.7" class="st1" width="28.8" height="23"/>
			<rect x="753" y="632.7" class="st1" width="28.8" height="23"/>
		</g>
	</g>
	<linearGradient id="SVGID_1_" gradientUnits="userSpaceOnUse" x1="503.6913" y1="621.252" x2="512.0484" y2="752.951">
		<stop  offset="0" style="stop-color:#91B3FF"/>
		<stop  offset="0.4022" style="stop-color:#6791F2"/>
		<stop  offset="0.7939" style="stop-color:#3B6CE4"/>
	</linearGradient>
	<path class="st2" d="M92.4,750.7c0,0,164.1-131,411.6-131c233.1,0,427.4,131,427.4,131s-65.5-24.7-204.4-27.3
		c-76.3-1.4-132.4,24.5-225.9,24.5c-87.8,0-149.8-12.1-243.2-15.8C171.4,728.5,92.4,750.7,92.4,750.7z"/>
	<g>
		<path class="st3" d="M564.4,449.9H372l-82.4,57.6V303.1c0-16.7,13.5-30.2,30.2-30.2h274.9v146.8
			C594.7,436.4,581.1,449.9,564.4,449.9z"/>
		<g>
			<g>
				<circle class="st4" cx="371.6" cy="361.4" r="20.9"/>
				<circle class="st4" cx="442.1" cy="361.4" r="20.9"/>
				<circle class="st4" cx="512.6" cy="361.4" r="20.9"/>
			</g>
		</g>
		<g>
			<circle class="st5" cx="371.6" cy="357.1" r="20.9"/>
			<circle class="st5" cx="442.1" cy="357.1" r="20.9"/>
			<circle class="st5" cx="512.6" cy="357.1" r="20.9"/>
		</g>
	</g>
	<g>
		<path class="st6" d="M466.6,539.1h192.5l82.4,57.6V392.3c0-16.7-13.5-30.2-30.2-30.2H436.4v146.8
			C436.4,525.6,449.9,539.1,466.6,539.1z"/>
		<g>
			<g>
				<circle class="st7" cx="659.4" cy="450.6" r="20.9"/>
				<circle class="st7" cx="588.9" cy="450.6" r="20.9"/>
				<circle class="st7" cx="518.4" cy="450.6" r="20.9"/>
			</g>
		</g>
		<g>
			<circle class="st5" cx="659.4" cy="446.3" r="20.9"/>
			<circle class="st5" cx="588.9" cy="446.3" r="20.9"/>
			<circle class="st5" cx="518.4" cy="446.3" r="20.9"/>
		</g>
	</g>
	<linearGradient id="SVGID_2_" gradientUnits="userSpaceOnUse" x1="519.3963" y1="618.2672" x2="523.3793" y2="681.0345">
		<stop  offset="0" style="stop-color:#91B3FF"/>
		<stop  offset="0.2484" style="stop-color:#6795EC"/>
		<stop  offset="0.7939" style="stop-color:#004CBF"/>
	</linearGradient>
	<path class="st8" d="M429.1,623.7c-5.5,3.8-8.6,8.1-8.6,12.5c0,17.1,44.8,30.9,100,30.9c55.2,0,100-13.9,100-30.9
		c0-2.2-0.8-4.4-2.3-6.6c-36.5-6.2-74.8-10-114.3-10C478.1,619.7,453.1,621.2,429.1,623.7z"/>
	
		<ellipse transform="matrix(0.9596 -0.2814 0.2814 0.9596 -180.3815 124.1313)" class="st3" cx="342.1" cy="690.2" rx="46.8" ry="15.8"/>
	
		<ellipse transform="matrix(0.2923 -0.9563 0.9563 0.2923 -284.6594 1037.5504)" class="st3" cx="558.7" cy="711.1" rx="12.2" ry="30.2"/>
	<g>
		<linearGradient id="SVGID_3_" gradientUnits="userSpaceOnUse" x1="743.8711" y1="649.0374" x2="706.9183" y2="598.7522">
			<stop  offset="0" style="stop-color:#EFBB81"/>
			<stop  offset="0.5011" style="stop-color:#F79E57"/>
			<stop  offset="1" style="stop-color:#FF7F2A"/>
		</linearGradient>
		<path class="st9" d="M749.7,627.7c4.9-5.1,7.4-11.8,6.4-18.6c-1.2-8.2-7.1-14.6-15.2-17.8c0.2-1.8,0.2-3.7-0.2-5.6
			c-1.9-9.1-10.8-15-19.8-13.1c-9,1.9-14.8,10.8-12.9,19.9c0.2,1.2,0.6,2.3,1.1,3.3c-6.9,5.4-10.9,13.4-9.7,21.6
			c0.6,3.8,2.1,7.2,4.5,10.1c-5.2,3.4-8.4,8-8.4,13c0,10.5,14,19,31.2,19c17.2,0,31.2-8.5,31.2-19
			C757.8,635.6,754.7,631.1,749.7,627.7z"/>
		<g>
			<g>
				<path class="st10" d="M726,686L726,686c-0.9-0.5-1.5-2.5-1.2-4.3c4.4-35.6,1.3-54.8-0.2-61.3c-0.4-1.6-0.1-3.4,0.6-4.4l0,0
					c0.9-1.3,2.1-0.7,2.6,1.4c1.8,8,5.1,28.9,0.4,66.1C727.9,685.4,726.9,686.6,726,686z"/>
			</g>
		</g>
	</g>
	<g>
		<linearGradient id="SVGID_4_" gradientUnits="userSpaceOnUse" x1="802.2014" y1="686.5665" x2="781.1185" y2="657.8769">
			<stop  offset="0" style="stop-color:#EFBB81"/>
			<stop  offset="0.5011" style="stop-color:#F79E57"/>
			<stop  offset="1" style="stop-color:#FF7F2A"/>
		</linearGradient>
		<path class="st11" d="M805.5,674.4c2.8-2.9,4.2-6.7,3.7-10.6c-0.7-4.7-4.1-8.3-8.7-10.2c0.1-1,0.1-2.1-0.1-3.2
			c-1.1-5.2-6.2-8.5-11.3-7.5c-5.2,1.1-8.4,6.2-7.3,11.4c0.1,0.7,0.3,1.3,0.6,1.9c-4,3.1-6.2,7.6-5.5,12.3c0.3,2.2,1.2,4.1,2.6,5.8
			c-3,1.9-4.8,4.5-4.8,7.4c0,6,8,10.8,17.8,10.8s17.8-4.9,17.8-10.8C810.1,678.9,808.4,676.3,805.5,674.4z"/>
		<g>
			<g>
				<path class="st10" d="M792,707.7L792,707.7c-0.5-0.3-0.8-1.4-0.7-2.5c2.5-20.3,0.8-31.2-0.1-35c-0.2-0.9-0.1-1.9,0.3-2.5l0,0
					c0.5-0.8,1.2-0.4,1.5,0.8c1,4.5,2.9,16.5,0.2,37.7C793.1,707.3,792.5,708,792,707.7z"/>
			</g>
		</g>
	</g>
	<g>
		<path class="st12" d="M308,635.3l18-1.1c0,0,14.9,19.1-8.5,27.6c-26.5,9.6-55.2-3.2-60.5,3.2c-5.3,6.4,11.7,45.7,11.7,45.7
			l-9.6,7.4c0,0-27.1-45.5-24.4-56.3c2.1-8.5,6.4-12.7,14.9-13.8C258.1,646.9,308,635.3,308,635.3z"/>
		<path class="st13" d="M268.3,708.8c0,0,8.2,2.4,7.8,5.9c-0.4,3.5-19.3,21.8-19.3,21.8s-5.2-3.7-3.8-7.1c1.4-3.4,6.6-10.7,6.6-10.7
			l-1.8-3.1L268.3,708.8z"/>
		<path class="st14" d="M323.9,642.7l18-1.1c0,0,14.2,21.8-9.2,30.3c-26.5,9.6-54.5-5.8-59.8,0.5c-5.3,6.4,11.7,45.7,11.7,45.7
			l-9.6,7.4c0,0-24.2-45.2-24.4-56.3c-0.2-8.5,6.4-12.7,14.9-13.8C274,654.4,323.9,642.7,323.9,642.7z"/>
		<path class="st15" d="M286.3,581.6c-12.3,8.1-28.7,59.5-24,62.1c19.1,10.6,76.7,10.6,83.9,0c10.6-15.7,0-55.2-13.8-60.5
			C318.6,577.9,294.6,576.2,286.3,581.6z"/>
		<path class="st16" d="M328.8,591.5c0,0,8.4,5.3,11,16.9c2.9,12.5-31.4,27.9-31.4,27.9H292c0,0,29.6-11,42.5-22.4
			C342,607.3,328.8,591.5,328.8,591.5z"/>
		<path class="st16" d="M320.8,580c0,0-2,4.9-3.8,7.1c-1.8,2.1-6.1,4.4-6.1,4.4l-7-0.8c0,0-1.3-4.1-1.4-6.4
			c-0.1-2.2,1.4-5.9,1.4-5.9s4.7,0.2,8.1,0.4C315.7,579,320.8,580,320.8,580z"/>
		<path class="st12" d="M308.9,584c0,0,4.3,3.7,2.2,8.2c-1.7,3.6-3,3.5-3,3.5l-2.4,24.8l-5.8,5.7l-3.9-7.8l8.8-23.2
			C304.8,595.1,300.6,587.7,308.9,584z"/>
		<polygon class="st16" points="282.6,615 290.1,605 287.4,619.2 		"/>
		<polygon class="st13" points="228.6,605.5 290.9,616 300.8,657.6 237.1,646.9 		"/>
		<path class="st17" d="M305.2,572l13.4-2.3l-1,9.8c0,0-4.8,4.8-8.7,4.4c-4.1-0.4-4.2-5.8-4.2-5.8L305.2,572z"/>
		<path class="st13" d="M282.8,713.8c0,0,8.2,2.4,7.8,5.9c-0.4,3.5-19.3,21.8-19.3,21.8s-5.2-3.7-3.8-7.1c1.4-3.4,6.6-10.7,6.6-10.7
			l-1.8-3.1L282.8,713.8z"/>
		<path class="st18" d="M296.3,558.6c0,0-4.6-1.8-3.8-12s0.6-12.2,6.3-15.3c8.4-4.5,12.2-0.9,12.9-1.6c0.7-0.7,11.6-10.1,17-1.2
			c5.4,8.9,0,27.7-3.9,29.2C317.5,560.4,296.3,558.6,296.3,558.6z"/>
		<path class="st17" d="M298.1,543c0,0-0.2,8.8,0,11.6c0,0-4.9,0.5-4.6,4.4s2.7,5.9,4.6,5.7c0,0,0.5,5.9,4.7,9
			c3.1,2.3,5,2.9,7.7,3.1c3.7,0.3,8.2-0.9,11.4-5.7c0.9-1.4,1.2-4.6,1.2-4.6s2.8,0.7,3.7-4.2c0.9-4.9-1.9-4.7-1.9-4.7
			s2.4-12.8,0.8-16.4c-1.4-3.3-3.8-7.8-11.6-7.8S300.2,533.7,298.1,543z"/>
		<path class="st18" d="M294.8,555.3c0,0,3.5,6.9,4.5,1c0.8-4.9,2.8-8.7,1.2-9.7c-1.7-1,4.6-5.1,6.6-4c1.9,1.1,4.6,0.6,5.8,4.3
			c1.1,3.7,5.3,0.6,6.5,2.3c1.6,2.4,0.4,2.5,0.9,5.7c0.5,3.2,4.2,1,3.4,5.1c-0.2,1.3,5.2-8.6,5.2-8.6l-1.8-19.3l-19.7-2.4l-11.4,7.1
			L294.8,555.3z"/>
	</g>
</g>
</svg>
