<?xml version="1.0" encoding="utf-8"?>
<!-- Generator: Adobe Illustrator 22.0.0, SVG Export Plug-In . SVG Version: 6.00 Build 0)  -->
<svg version="1.1" id="图层_1" xmlns="http://www.w3.org/2000/svg" xmlns:xlink="http://www.w3.org/1999/xlink" x="0px" y="0px"
	 viewBox="0 0 1024 1024" style="enable-background:new 0 0 1024 1024;" xml:space="preserve">
<style type="text/css">
	.st0{fill:#CCDAFE;}
	.st1{fill:#A8BEEF;}
	.st2{fill:url(#SVGID_1_);}
	.st3{fill:url(#SVGID_2_);}
	.st4{fill:#3B6CE4;}
	.st5{fill:url(#SVGID_3_);}
	.st6{fill:#FF7F2A;}
	.st7{fill:url(#SVGID_4_);}
	.st8{fill:#5D94FA;}
	.st9{fill:#4A82DD;}
	.st10{fill:#FFFFFF;}
	.st11{fill:#4C4C4C;}
	.st12{fill:#FDCACA;}
	.st13{fill:#63393F;}
	.st14{fill:#183F8C;}
	.st15{fill:#1E1E1E;}
	.st16{fill:#DBEEFE;}
	.st17{fill:#B9D8ED;}
	.st18{fill:#353535;}
	.st19{fill:#274DA0;}
</style>
<g>
	<g>
		<g>
			<polygon class="st0" points="163.3,716.1 163.3,510.3 245.7,510.3 245.7,362.1 386.3,362.1 386.3,716.1 			"/>
			<g>
				<rect x="259.7" y="386.6" class="st1" width="28.8" height="23"/>
				<rect x="302.9" y="386.6" class="st1" width="28.8" height="23"/>
				<rect x="346" y="386.6" class="st1" width="28.8" height="23"/>
				<rect x="259.7" y="422.6" class="st1" width="28.8" height="23"/>
				<rect x="302.9" y="422.6" class="st1" width="28.8" height="23"/>
				<rect x="346" y="422.6" class="st1" width="28.8" height="23"/>
				<rect x="259.7" y="458.5" class="st1" width="28.8" height="23"/>
				<rect x="302.9" y="458.5" class="st1" width="28.8" height="23"/>
				<rect x="346" y="458.5" class="st1" width="28.8" height="23"/>
				<rect x="259.7" y="494.5" class="st1" width="28.8" height="23"/>
				<rect x="302.9" y="494.5" class="st1" width="28.8" height="23"/>
				<rect x="346" y="494.5" class="st1" width="28.8" height="23"/>
				<rect x="259.7" y="530.5" class="st1" width="28.8" height="23"/>
				<rect x="216.5" y="530.5" class="st1" width="28.8" height="23"/>
				<rect x="173.3" y="530.5" class="st1" width="28.8" height="23"/>
				<rect x="302.9" y="530.5" class="st1" width="28.8" height="23"/>
				<rect x="346" y="530.5" class="st1" width="28.8" height="23"/>
				<rect x="259.7" y="566.5" class="st1" width="28.8" height="23"/>
				<rect x="216.5" y="566.5" class="st1" width="28.8" height="23"/>
				<rect x="173.3" y="566.5" class="st1" width="28.8" height="23"/>
				<rect x="302.9" y="566.5" class="st1" width="28.8" height="23"/>
				<rect x="346" y="566.5" class="st1" width="28.8" height="23"/>
				<rect x="259.7" y="602.4" class="st1" width="28.8" height="23"/>
				<rect x="216.5" y="602.4" class="st1" width="28.8" height="23"/>
				<rect x="173.3" y="602.4" class="st1" width="28.8" height="23"/>
				<rect x="302.9" y="602.4" class="st1" width="28.8" height="23"/>
				<rect x="346" y="602.4" class="st1" width="28.8" height="23"/>
				<rect x="259.7" y="638.4" class="st1" width="28.8" height="23"/>
				<rect x="216.5" y="638.4" class="st1" width="28.8" height="23"/>
				<rect x="173.3" y="638.4" class="st1" width="28.8" height="23"/>
				<rect x="302.9" y="638.4" class="st1" width="28.8" height="23"/>
				<rect x="346" y="638.4" class="st1" width="28.8" height="23"/>
			</g>
		</g>
		<g>
			<polygon class="st0" points="635.3,713.3 635.3,583.7 698.6,583.7 698.6,434.1 795,434.1 795,504.6 851.2,504.6 851.2,713.3 			
				"/>
			<g>
				<rect x="713" y="452.8" class="st1" width="28.8" height="23"/>
				<rect x="753.3" y="452.8" class="st1" width="28.8" height="23"/>
				<rect x="713" y="596.7" class="st1" width="28.8" height="23"/>
				<rect x="672.7" y="596.7" class="st1" width="28.8" height="23"/>
				<rect x="672.7" y="632.7" class="st1" width="28.8" height="23"/>
				<rect x="753.3" y="596.7" class="st1" width="28.8" height="23"/>
				<rect x="713" y="488.8" class="st1" width="28.8" height="23"/>
				<rect x="753.3" y="488.8" class="st1" width="28.8" height="23"/>
				<rect x="713" y="524.7" class="st1" width="28.8" height="23"/>
				<rect x="753.3" y="524.7" class="st1" width="28.8" height="23"/>
				<rect x="793.6" y="524.7" class="st1" width="28.8" height="23"/>
				<rect x="793.6" y="560.7" class="st1" width="28.8" height="23"/>
				<rect x="793.6" y="596.7" class="st1" width="28.8" height="23"/>
				<rect x="793.6" y="632.7" class="st1" width="28.8" height="23"/>
				<rect x="713" y="560.7" class="st1" width="28.8" height="23"/>
				<rect x="753.3" y="560.7" class="st1" width="28.8" height="23"/>
				<rect x="713" y="632.7" class="st1" width="28.8" height="23"/>
				<rect x="753.3" y="632.7" class="st1" width="28.8" height="23"/>
			</g>
		</g>
		<g>
			<g>
				<linearGradient id="SVGID_1_" gradientUnits="userSpaceOnUse" x1="504.0324" y1="621.252" x2="512.3896" y2="752.951">
					<stop  offset="0" style="stop-color:#91B3FF"/>
					<stop  offset="0.4022" style="stop-color:#6791F2"/>
					<stop  offset="0.7939" style="stop-color:#3B6CE4"/>
				</linearGradient>
				<path class="st2" d="M92.7,750.7c0,0,164.1-131,411.6-131c233.1,0,427.4,131,427.4,131s-65.5-24.7-204.4-27.3
					c-76.3-1.4-132.4,24.5-225.9,24.5c-87.8,0-149.8-12.1-243.2-15.8C171.7,728.5,92.7,750.7,92.7,750.7z"/>
				<linearGradient id="SVGID_2_" gradientUnits="userSpaceOnUse" x1="519.7374" y1="618.2672" x2="523.7205" y2="681.0345">
					<stop  offset="0" style="stop-color:#91B3FF"/>
					<stop  offset="0.2484" style="stop-color:#6795EC"/>
					<stop  offset="0.7939" style="stop-color:#004CBF"/>
				</linearGradient>
				<path class="st3" d="M429.4,623.7c-5.5,3.8-8.6,8.1-8.6,12.5c0,17.1,44.8,30.9,100,30.9c55.2,0,100-13.9,100-30.9
					c0-2.2-0.8-4.4-2.3-6.6c-36.5-6.2-74.8-10-114.3-10C478.4,619.7,453.4,621.2,429.4,623.7z"/>
				
					<ellipse transform="matrix(0.9596 -0.2814 0.2814 0.9596 -180.3677 124.2272)" class="st4" cx="342.4" cy="690.2" rx="46.8" ry="15.8"/>
				
					<ellipse transform="matrix(0.2923 -0.9563 0.9563 0.2923 -284.418 1037.8767)" class="st4" cx="559" cy="711.1" rx="12.2" ry="30.2"/>
			</g>
			<g>
				<g>
					<linearGradient id="SVGID_3_" gradientUnits="userSpaceOnUse" x1="744.2123" y1="649.0374" x2="707.2595" y2="598.7522">
						<stop  offset="0" style="stop-color:#EFBB81"/>
						<stop  offset="0.5011" style="stop-color:#F79E57"/>
						<stop  offset="1" style="stop-color:#FF7F2A"/>
					</linearGradient>
					<path class="st5" d="M750,627.7c4.9-5.1,7.4-11.8,6.4-18.6c-1.2-8.2-7.1-14.6-15.2-17.8c0.2-1.8,0.2-3.7-0.2-5.6
						c-1.9-9.1-10.8-15-19.8-13.1c-9,1.9-14.8,10.8-12.9,19.9c0.2,1.2,0.6,2.3,1.1,3.3c-6.9,5.4-10.9,13.4-9.7,21.6
						c0.6,3.8,2.1,7.2,4.5,10.1c-5.2,3.4-8.4,8-8.4,13c0,10.5,14,19,31.2,19c17.2,0,31.2-8.5,31.2-19
						C758.1,635.6,755.1,631.1,750,627.7z"/>
					<g>
						<g>
							<path class="st6" d="M726.3,686L726.3,686c-0.9-0.5-1.5-2.5-1.2-4.3c4.4-35.6,1.3-54.8-0.2-61.3c-0.4-1.6-0.1-3.4,0.6-4.4
								l0,0c0.9-1.3,2.1-0.7,2.6,1.4c1.8,8,5.1,28.9,0.4,66.1C728.2,685.4,727.3,686.6,726.3,686z"/>
						</g>
					</g>
				</g>
				<g>
					<linearGradient id="SVGID_4_" gradientUnits="userSpaceOnUse" x1="802.5426" y1="686.5665" x2="781.4596" y2="657.8769">
						<stop  offset="0" style="stop-color:#EFBB81"/>
						<stop  offset="0.5011" style="stop-color:#F79E57"/>
						<stop  offset="1" style="stop-color:#FF7F2A"/>
					</linearGradient>
					<path class="st7" d="M805.8,674.4c2.8-2.9,4.2-6.7,3.7-10.6c-0.7-4.7-4.1-8.3-8.7-10.2c0.1-1,0.1-2.1-0.1-3.2
						c-1.1-5.2-6.2-8.5-11.3-7.5c-5.2,1.1-8.4,6.2-7.3,11.4c0.1,0.7,0.3,1.3,0.6,1.9c-4,3.1-6.2,7.6-5.5,12.3
						c0.3,2.2,1.2,4.1,2.6,5.8c-3,1.9-4.8,4.5-4.8,7.4c0,6,8,10.8,17.8,10.8c9.8,0,17.8-4.9,17.8-10.8
						C810.5,678.9,808.7,676.3,805.8,674.4z"/>
					<g>
						<g>
							<path class="st6" d="M792.3,707.7L792.3,707.7c-0.5-0.3-0.8-1.4-0.7-2.5c2.5-20.3,0.8-31.2-0.1-35c-0.2-0.9-0.1-1.9,0.3-2.5
								l0,0c0.5-0.8,1.2-0.4,1.5,0.8c1,4.5,2.9,16.5,0.2,37.7C793.4,707.3,792.9,708,792.3,707.7z"/>
						</g>
					</g>
				</g>
			</g>
		</g>
	</g>
	<path class="st4" d="M717.2,552.8h-410c-5.5,0-10-4.5-10-10v-260c0-5.5,4.5-10,10-10h410c5.5,0,10,4.5,10,10v260
		C727.2,548.4,722.8,552.8,717.2,552.8z"/>
	<path class="st8" d="M307.2,534.8v-244c0-4.4,3.6-8,8-8h394c4.4,0,8,3.6,8,8v244c0,4.4-3.6,8-8,8h-394
		C310.8,542.8,307.2,539.3,307.2,534.8z"/>
	<g>
		
			<ellipse transform="matrix(0.9871 -0.1602 0.1602 0.9871 -55.2023 70.1556)" class="st9" cx="407.5" cy="377.5" rx="32.7" ry="32.7"/>
		<path class="st9" d="M407.5,410.2c-35.8,0-64.8,31.1-64.8,69.5c0,0,0,0.1,0,0.1c0,4.5,3.5,8.1,7.7,8.1h114.1
			c4.2,0,7.7-3.6,7.7-8.1c0,0,0-0.1,0-0.1C472.3,441.3,443.3,410.2,407.5,410.2z"/>
		<path class="st9" d="M509,381.4h55c5.5,0,10-4.5,10-10s-4.5-10-10-10h-55c-5.5,0-10,4.5-10,10S503.4,381.4,509,381.4z"/>
		<path class="st9" d="M674.6,405.8H509c-5.5,0-10,4.5-10,10s4.5,10,10,10h165.7c5.5,0,10-4.5,10-10S680.2,405.8,674.6,405.8z"/>
		<path class="st9" d="M629.6,450.2h-122c-4.8,0-8.7,3.9-8.7,8.7v2.7c0,4.8,3.9,8.7,8.7,8.7h122c4.8,0,8.7-3.9,8.7-8.7v-2.7
			C638.3,454.1,634.4,450.2,629.6,450.2z"/>
		<path class="st9" d="M600.6,381.4h27.7c5.5,0,10-4.5,10-10s-4.5-10-10-10h-27.7c-5.5,0-10,4.5-10,10S595.1,381.4,600.6,381.4z"/>
	</g>
	<g>
		
			<ellipse transform="matrix(0.9871 -0.1602 0.1602 0.9871 -54.0009 70.0588)" class="st10" cx="407.5" cy="370" rx="32.7" ry="32.7"/>
		<path class="st10" d="M407.5,402.7c-35.8,0-64.8,31.1-64.8,69.5c0,0,0,0.1,0,0.1c0,4.5,3.5,8.1,7.7,8.1h114.1
			c4.2,0,7.7-3.6,7.7-8.1c0,0,0-0.1,0-0.1C472.3,433.8,443.3,402.7,407.5,402.7z"/>
		<path class="st10" d="M509,373.9h55c5.5,0,10-4.5,10-10s-4.5-10-10-10h-55c-5.5,0-10,4.5-10,10S503.4,373.9,509,373.9z"/>
		<path class="st10" d="M674.6,398.3H509c-5.5,0-10,4.5-10,10s4.5,10,10,10h165.7c5.5,0,10-4.5,10-10S680.2,398.3,674.6,398.3z"/>
		<path class="st10" d="M629.6,442.7h-122c-4.8,0-8.7,3.9-8.7,8.7v2.7c0,4.8,3.9,8.7,8.7,8.7h122c4.8,0,8.7-3.9,8.7-8.7v-2.7
			C638.3,446.6,634.4,442.7,629.6,442.7z"/>
		<path class="st10" d="M600.6,373.9h27.7c5.5,0,10-4.5,10-10s-4.5-10-10-10h-27.7c-5.5,0-10,4.5-10,10S595.1,373.9,600.6,373.9z"/>
	</g>
	<g>
		<g>
			<polygon class="st11" points="480.4,583.7 440.4,583.7 443.4,576.3 474.3,576.5 			"/>
			<path class="st12" d="M424.4,499.5c0,0,1.3,2.8,0,6.7c-1.3,3.8-4.1,4.2-4.6,5.8c-0.5,1.6,0.7,7.4-1,7.4s-3,0.2-4.2,2.1
				c-1.2,1.9-1.9,4.9-3.4,5.1c-2,0.2-9-4.8-9.3-5.2s-6.8-3.3-7.5-12.2c-0.7-8.9,1.6-11.2,1.6-11.2s6.7-10.9,14.6-6.8
				C418.5,495,424.4,499.5,424.4,499.5z"/>
			<path class="st12" d="M433,569.9c0,0,5.3,1.1,7.5,0.9c2.2-0.2,10.4-2.2,11.2-2.3s4.9,0.6,6,0.5c1.1,0,2.4-0.2,2.9,0.3
				c0.4,0.5,1.5,2.4,1.5,2.4s0.7,0,1.1,0.6c0.4,0.6,2.2,4.8,2.2,4.8s0.2,2.1,0.2,2.8c0,0.6,0,1.8-0.6,1.7s-0.5,1-1.7,0.3
				s-2.3-1.8-3.5-2.1s-3.2-0.1-3.6-0.1c-0.5,0-3.4,2-5.4,2.2s-7.7,0.2-8.2,0.3s-3.2,0.2-4,0.7c-0.8,0.5-4.7,1.6-4.7,1.6L433,569.9z"
				/>
			<path class="st13" d="M416.7,500l5.5,3.5c0,0,4.4,1.9,6-1.7c1.6-3.6,0.7-7-0.2-8.8c-1.9-3.7-10.5-9.5-16.8-9.7s-10.2,3.6-11.2,5
				s-5.6,7.5-5.5,15.3c0,1.2,1.4-1.7,3-2.1c3.3-0.9,4.9,2.9,4.9,4.9s0.9,2.7,0.9,2.7s4-5.8,5.6-5.2c2.6,0.8,2.6-1.8,2.7-2.6
				C411.7,500.7,413.6,498.1,416.7,500z"/>
			<polygon class="st12" points="396.7,508.3 389.5,516.9 401.9,532.9 409.2,523.5 			"/>
			<rect x="440.4" y="583.7" width="41.2" height="1.5"/>
			<polygon points="495.3,546.5 481.7,585.2 474.4,576.6 486.5,542.8 			"/>
			<polygon class="st10" points="474.8,576.5 486.8,543.3 494.9,546.7 481.5,584.4 			"/>
			<path class="st14" d="M408.1,596.9c0,0,0.4,4.6,1.5,5.2c4.5,2.5,13.1,6.1,23,7.4c10.7,1.3,17.4,4,19.1,8.8
				c2.8,7.8-2.2,53-0.8,54.4c3.8,3.7,12.2,2.5,15.3,4.3c0.7,0.4,1.3,1,1.7,1.7c1.3,2.2-0.2,4.9-2.8,4.9h-14.1h-15
				c0,0,9.2-50-2.1-52.5c-7.3-1.6-49.3-7.6-49.7-7.9c-0.4-0.3-16.2,0.7-16.1-13.1L408.1,596.9z"/>
			<path class="st15" d="M438,666.3h13.2c0.7,0,1.2,0.6,1.1,1.3c-0.2,1.5-0.1,3.8,1.8,5c2.9,1.8,14.1,2.2,15.7,4.4s0.6,7.8,0.6,7.8
				h-34.8L438,666.3z"/>
			<path class="st4" d="M404.4,597.9c0,0,0.9,9.2,3.1,11c1,0.8,7.4,5.8,18,7.6s17.1,5.8,18.8,10.7c2.8,7.8-2.2,53-0.8,54.4
				c3.8,3.7,12.2,2.5,15.3,4.3c1,0.6,1.7,1.5,2.1,2.4c0.9,2-0.6,4.2-2.8,4.2h-14.5h-9.9c-2.7,0-4.9-2.4-4.6-5.1
				c1.4-12.5,3.9-43.9-5.1-45.9c-7.3-1.6-30.8,2.5-46.4-8.1c-4.7-3.2-9.5-9.9-9.4-23.7L404.4,597.9z"/>
			<path class="st16" d="M390.9,513.7c0,0-12.1,9-17.6,17.3c-5.6,8.2-7.6,26.6-7.6,26.6l-2.4,49.9c0,0-1,15.6,17.2,3.9
				c5.5-3.5,20.4-9.9,26.6-12.5c1.6-0.7,2.4-2.4,1.8-4l-1.5-4.4c0,0,10.2,1.6,17.4-2.3c7-3.7,11.6-3.3,11.6-3.3l-1.7-16
				c0,0-16.6-0.1-19.1-3.4c-2.5-3.4-9.2-25.9-9.2-25.9l2.7-6.2L390.9,513.7z"/>
			<polygon class="st17" points="390.9,513.7 409.2,533.4 401.9,541.6 386.4,517.3 			"/>
			<path class="st17" d="M435.2,573.3c0,0-20.5,5.4-24.7,1.4c-4.2-4-8.4-17.6-8.4-17.6s3.6,16.4,9.1,19.1c5.6,2.8,24.1-1.8,24.1-1.8
				L435.2,573.3z"/>
			<path class="st17" d="M407.4,590.6c0,0-19.5-6.6-22-26.7c0,0-0.9,13.1,11,22c11.9,8.9,11.7,6.7,11.7,6.7L407.4,590.6z"/>
			<path class="st18" d="M429.4,674.9h13.4c0.6,0,1,0.5,0.9,1.1c-0.2,1.4-0.3,4,1.8,5.2c2.9,1.8,14.1,2.2,15.7,4.4
				c1.6,2.3,0.6,7.8,0.6,7.8H430c-1.6,0-2.9-1.4-2.6-3L429.4,674.9z"/>
		</g>
		<path class="st19" d="M429.7,585.2h71c2.9,0,5.3,2.4,5.3,5.3l0,0c0,2.9-2.4,5.3-5.3,5.3h-71c-2.9,0-5.3-2.4-5.3-5.3l0,0
			C424.5,587.6,426.8,585.2,429.7,585.2z"/>
		<rect x="460" y="589.5" class="st19" width="10.5" height="105.1"/>
		<path class="st19" d="M368.1,632h51.3c4.4,0,8,3.6,8,8v46.6c0,4.4-3.6,8-8,8h-51.3c-4.4,0-8-3.6-8-8V640
			C360.1,635.6,363.7,632,368.1,632z"/>
	</g>
</g>
</svg>
