<?xml version="1.0" encoding="utf-8"?>
<!-- Generator: Adobe Illustrator 22.0.0, SVG Export Plug-In . SVG Version: 6.00 Build 0)  -->
<svg version="1.1" id="图层_1" xmlns="http://www.w3.org/2000/svg" xmlns:xlink="http://www.w3.org/1999/xlink" x="0px" y="0px"
	 viewBox="0 0 1024 1024" style="enable-background:new 0 0 1024 1024;" xml:space="preserve">
<style type="text/css">
	.st0{fill:#CCDAFE;}
	.st1{fill:#A8BEEF;}
	.st2{fill:url(#SVGID_1_);}
	.st3{fill:url(#SVGID_2_);}
	.st4{fill:#3B6CE4;}
	.st5{fill:url(#SVGID_3_);}
	.st6{fill:#FF7F2A;}
	.st7{fill:url(#SVGID_4_);}
	.st8{fill:#124287;}
	.st9{fill:url(#SVGID_5_);}
	.st10{fill:url(#SVGID_6_);}
	.st11{fill:#285BBF;}
	.st12{fill:#5D94FA;}
	.st13{fill:#1E53A8;}
	.st14{fill:#236BC1;}
	.st15{fill:#DBEEFE;}
	.st16{fill:#353535;}
	.st17{fill:#0C3668;}
	.st18{fill:#EFBB81;}
</style>
<g>
	<g>
		<g>
			<polygon class="st0" points="162.5,716.5 162.5,510.7 245,510.7 245,362.5 385.6,362.5 385.6,716.5 			"/>
			<g>
				<rect x="258.9" y="386.9" class="st1" width="28.8" height="23"/>
				<rect x="302.1" y="386.9" class="st1" width="28.8" height="23"/>
				<rect x="345.3" y="386.9" class="st1" width="28.8" height="23"/>
				<rect x="258.9" y="422.9" class="st1" width="28.8" height="23"/>
				<rect x="302.1" y="422.9" class="st1" width="28.8" height="23"/>
				<rect x="345.3" y="422.9" class="st1" width="28.8" height="23"/>
				<rect x="258.9" y="458.9" class="st1" width="28.8" height="23"/>
				<rect x="302.1" y="458.9" class="st1" width="28.8" height="23"/>
				<rect x="345.3" y="458.9" class="st1" width="28.8" height="23"/>
				<rect x="258.9" y="494.9" class="st1" width="28.8" height="23"/>
				<rect x="302.1" y="494.9" class="st1" width="28.8" height="23"/>
				<rect x="345.3" y="494.9" class="st1" width="28.8" height="23"/>
				<rect x="258.9" y="530.8" class="st1" width="28.8" height="23"/>
				<rect x="215.8" y="530.8" class="st1" width="28.8" height="23"/>
				<rect x="172.6" y="530.8" class="st1" width="28.8" height="23"/>
				<rect x="302.1" y="530.8" class="st1" width="28.8" height="23"/>
				<rect x="345.3" y="530.8" class="st1" width="28.8" height="23"/>
				<rect x="258.9" y="566.8" class="st1" width="28.8" height="23"/>
				<rect x="215.8" y="566.8" class="st1" width="28.8" height="23"/>
				<rect x="172.6" y="566.8" class="st1" width="28.8" height="23"/>
				<rect x="302.1" y="566.8" class="st1" width="28.8" height="23"/>
				<rect x="345.3" y="566.8" class="st1" width="28.8" height="23"/>
				<rect x="258.9" y="602.8" class="st1" width="28.8" height="23"/>
				<rect x="215.8" y="602.8" class="st1" width="28.8" height="23"/>
				<rect x="172.6" y="602.8" class="st1" width="28.8" height="23"/>
				<rect x="302.1" y="602.8" class="st1" width="28.8" height="23"/>
				<rect x="345.3" y="602.8" class="st1" width="28.8" height="23"/>
				<rect x="258.9" y="638.8" class="st1" width="28.8" height="23"/>
				<rect x="215.8" y="638.8" class="st1" width="28.8" height="23"/>
				<rect x="172.6" y="638.8" class="st1" width="28.8" height="23"/>
				<rect x="302.1" y="638.8" class="st1" width="28.8" height="23"/>
				<rect x="345.3" y="638.8" class="st1" width="28.8" height="23"/>
			</g>
		</g>
		<g>
			<polygon class="st0" points="634.5,713.6 634.5,584.1 697.9,584.1 697.9,434.4 794.3,434.4 794.3,504.9 850.4,504.9 850.4,713.6 
							"/>
			<g>
				<rect x="712.3" y="453.1" class="st1" width="28.8" height="23"/>
				<rect x="752.6" y="453.1" class="st1" width="28.8" height="23"/>
				<rect x="712.3" y="597" class="st1" width="28.8" height="23"/>
				<rect x="672" y="597" class="st1" width="28.8" height="23"/>
				<rect x="672" y="633" class="st1" width="28.8" height="23"/>
				<rect x="752.6" y="597" class="st1" width="28.8" height="23"/>
				<rect x="712.3" y="489.1" class="st1" width="28.8" height="23"/>
				<rect x="752.6" y="489.1" class="st1" width="28.8" height="23"/>
				<rect x="712.3" y="525.1" class="st1" width="28.8" height="23"/>
				<rect x="752.6" y="525.1" class="st1" width="28.8" height="23"/>
				<rect x="792.8" y="525.1" class="st1" width="28.8" height="23"/>
				<rect x="792.8" y="561.1" class="st1" width="28.8" height="23"/>
				<rect x="792.8" y="597" class="st1" width="28.8" height="23"/>
				<rect x="792.8" y="633" class="st1" width="28.8" height="23"/>
				<rect x="712.3" y="561.1" class="st1" width="28.8" height="23"/>
				<rect x="752.6" y="561.1" class="st1" width="28.8" height="23"/>
				<rect x="712.3" y="633" class="st1" width="28.8" height="23"/>
				<rect x="752.6" y="633" class="st1" width="28.8" height="23"/>
			</g>
		</g>
		<g>
			<g>
				<linearGradient id="SVGID_1_" gradientUnits="userSpaceOnUse" x1="503.2872" y1="621.5941" x2="511.6443" y2="753.2931">
					<stop  offset="0" style="stop-color:#91B3FF"/>
					<stop  offset="0.4022" style="stop-color:#6791F2"/>
					<stop  offset="0.7939" style="stop-color:#3B6CE4"/>
				</linearGradient>
				<path class="st2" d="M92,751c0,0,164.1-131,411.6-131c233.1,0,427.4,131,427.4,131s-65.5-24.7-204.4-27.3
					c-76.3-1.4-132.4,24.5-225.9,24.5c-87.8,0-149.8-12.1-243.2-15.8C171,728.9,92,751,92,751z"/>
				<linearGradient id="SVGID_2_" gradientUnits="userSpaceOnUse" x1="518.9922" y1="618.6093" x2="522.9752" y2="681.3766">
					<stop  offset="0" style="stop-color:#91B3FF"/>
					<stop  offset="0.2484" style="stop-color:#6795EC"/>
					<stop  offset="0.7939" style="stop-color:#004CBF"/>
				</linearGradient>
				<path class="st3" d="M428.7,624.1c-5.5,3.8-8.6,8.1-8.6,12.5c0,17.1,44.8,30.9,100,30.9s100-13.9,100-30.9
					c0-2.2-0.8-4.4-2.3-6.6c-36.5-6.2-74.8-10-114.3-10C477.7,620.1,452.7,621.5,428.7,624.1z"/>
				
					<ellipse transform="matrix(0.9596 -0.2814 0.2814 0.9596 -180.494 124.0314)" class="st4" cx="341.7" cy="690.6" rx="46.8" ry="15.8"/>
				
					<ellipse transform="matrix(0.2923 -0.9563 0.9563 0.2923 -285.2726 1037.4061)" class="st4" cx="558.3" cy="711.4" rx="12.2" ry="30.2"/>
			</g>
			<g>
				<g>
					<linearGradient id="SVGID_3_" gradientUnits="userSpaceOnUse" x1="743.467" y1="649.3796" x2="706.5143" y2="599.0943">
						<stop  offset="0" style="stop-color:#EFBB81"/>
						<stop  offset="0.5011" style="stop-color:#F79E57"/>
						<stop  offset="1" style="stop-color:#FF7F2A"/>
					</linearGradient>
					<path class="st5" d="M749.3,628c4.9-5.1,7.4-11.8,6.4-18.6c-1.2-8.2-7.1-14.6-15.2-17.8c0.2-1.8,0.2-3.7-0.2-5.6
						c-1.9-9.1-10.8-15-19.8-13.1s-14.8,10.8-12.9,19.9c0.2,1.2,0.6,2.3,1.1,3.3c-6.9,5.4-10.9,13.4-9.7,21.6
						c0.6,3.8,2.1,7.2,4.5,10.1c-5.2,3.4-8.4,8-8.4,13c0,10.5,14,19,31.2,19c17.2,0,31.2-8.5,31.2-19
						C757.4,635.9,754.3,631.4,749.3,628z"/>
					<g>
						<g>
							<path class="st6" d="M725.6,686.4L725.6,686.4c-0.9-0.5-1.5-2.5-1.2-4.3c4.4-35.6,1.3-54.8-0.2-61.3
								c-0.4-1.6-0.1-3.4,0.6-4.4l0,0c0.9-1.3,2.1-0.7,2.6,1.4c1.8,8,5.1,28.9,0.4,66.1C727.5,685.7,726.5,686.9,725.6,686.4z"/>
						</g>
					</g>
				</g>
				<g>
					<linearGradient id="SVGID_4_" gradientUnits="userSpaceOnUse" x1="801.7973" y1="686.9087" x2="780.7144" y2="658.2191">
						<stop  offset="0" style="stop-color:#EFBB81"/>
						<stop  offset="0.5011" style="stop-color:#F79E57"/>
						<stop  offset="1" style="stop-color:#FF7F2A"/>
					</linearGradient>
					<path class="st7" d="M805.1,674.7c2.8-2.9,4.2-6.7,3.7-10.6c-0.7-4.7-4.1-8.3-8.7-10.2c0.1-1,0.1-2.1-0.1-3.2
						c-1.1-5.2-6.2-8.5-11.3-7.5s-8.4,6.2-7.3,11.4c0.1,0.7,0.3,1.3,0.6,1.9c-4,3.1-6.2,7.6-5.5,12.3c0.3,2.2,1.2,4.1,2.6,5.8
						c-3,1.9-4.8,4.5-4.8,7.4c0,6,8,10.8,17.8,10.8c9.8,0,17.8-4.9,17.8-10.8C809.7,679.2,808,676.7,805.1,674.7z"/>
					<g>
						<g>
							<path class="st6" d="M791.6,708L791.6,708c-0.5-0.3-0.8-1.4-0.7-2.5c2.5-20.3,0.8-31.2-0.1-35c-0.2-0.9-0.1-1.9,0.3-2.5l0,0
								c0.5-0.8,1.2-0.4,1.5,0.8c1,4.5,2.9,16.5,0.2,37.7C792.7,707.7,792.1,708.3,791.6,708z"/>
						</g>
					</g>
				</g>
			</g>
		</g>
	</g>
	<g>
		<polygon class="st8" points="302.1,533.5 349.6,477.1 349.6,533.5 		"/>
		<linearGradient id="SVGID_5_" gradientUnits="userSpaceOnUse" x1="420.7707" y1="404.4561" x2="420.7707" y2="547.9188">
			<stop  offset="0" style="stop-color:#91B3FF"/>
			<stop  offset="0.5066" style="stop-color:#6791F2"/>
			<stop  offset="1" style="stop-color:#3B6CE4"/>
		</linearGradient>
		<polygon class="st9" points="349,477.1 492.5,439 492.5,593.1 349,633.9 		"/>
		<linearGradient id="SVGID_6_" gradientUnits="userSpaceOnUse" x1="572.2895" y1="404.168" x2="579.7741" y2="575.1702">
			<stop  offset="0" style="stop-color:#91B3FF"/>
			<stop  offset="0.5066" style="stop-color:#6791F2"/>
			<stop  offset="1" style="stop-color:#3B6CE4"/>
		</linearGradient>
		<polygon class="st10" points="663.7,480.1 492.5,439 492.5,593.1 663.7,638.9 		"/>
		<polygon class="st11" points="517.2,523.6 517.2,706.1 349,633.9 349,477.1 		"/>
		<polygon class="st12" points="663.7,638.9 517.2,706.1 517.2,523.6 663.7,480.1 		"/>
		<polygon class="st13" points="517.2,523.6 479,612.9 303.8,562.4 349,477.1 		"/>
		<polygon class="st14" points="517.2,523.6 570.3,607.5 712,550.4 663.7,480.1 		"/>
		<path class="st8" d="M394.1,528.2l33.2-22.2c0,0-11.5-18.6-21.8-19.6c-10.3-1-15.6,19-20.6,20c-4.9,1-16.7-7.5-19.2-11.3
			c-1.6-2.3-4-4.9-5.5-6.5c-0.8-0.8-2.2-0.8-2.9,0.1L345.5,503c-0.7,0.9,1.7,2.4,2.9,2.3c3.2-0.5,6.5-1.8,10.5-4.8l2.4,2l-12.9,16.2
			c-0.8,1-0.3,2.4,0.9,2.7c2,0.6,4.8-0.2,7.2-2.8c3.6-3.9,4-6,8.2-4.3C370.2,516.5,375.9,533.6,394.1,528.2z"/>
		<path class="st15" d="M401.5,484.6c5.6-4.3,23.5-15.8,45.3-3.2c7.7,5.3,13.5,15.9,16.4,22.2c0.9,2-0.8,4.2-3,3.9
			c-6.8-1.2-19.4-2.4-30.3,1.5c-1.6,0.6-3.3,0.1-4.3-1.2c-3.9-5.3-14.2-17.9-23.8-21.1C401,486.4,400.8,485.2,401.5,484.6z"/>
		<path class="st16" d="M355.6,489l-11,13.9c-0.4,0.5-0.4,1.2,0,1.6c0.9,1,2.6,2.4,4.6,1.9c2.3-0.6,7.2-3.5,9-4.6
			c0.4-0.3,1-0.2,1.4,0.1l0,0c0.5,0.4,1.2,0.3,1.7-0.1l5.2-5.6c0.5-0.5,0.5-1.3,0-1.7l-5.6-5.7C359.4,487.2,356.9,487.3,355.6,489z"
			/>
		<path class="st16" d="M361.6,502.7l5.6,3.4c0.8,0.5,1.1,1.5,0.6,2.3l-2.7,4.8c-0.4,0.7-1.1,1-1.9,0.8L363,514
			c-0.7-0.1-1.3,0.1-1.7,0.6c-1.7,2.2-6.2,7.9-8.2,7.9c-2.4,0-5.8,0-6-1.3c-0.1-1.1,9.4-14.2,12.3-18.1
			C359.9,502.5,360.9,502.3,361.6,502.7z"/>
		<path class="st17" d="M368.1,507.2c0,0,13,7.5,18.4,9.4c0.7,0.3,1.5,0.1,2-0.5c3.1-3.2,14.3-15.5,15.6-16.5
			c1.4-1.1,4.1-1.9,4.1-1.9s-2.9-0.4-6.2,2.7c-3,2.9-12.7,15.6-14.8,15.4S368.1,507.2,368.1,507.2z"/>
	</g>
	<path class="st18" d="M629.8,272.4c7.2,7.5,11.7,17.8,11.7,29c0,23.2-18.8,42-42,42c-3.1,0-6.1-0.3-9-1c7.6,8,18.4,13,30.3,13
		c23.2,0,42-18.8,42-42C662.8,293.3,648.6,276.5,629.8,272.4z"/>
	<path class="st12" d="M439.5,327.2c-2.9-7.7-13.5-13.4-26.2-13.4c-14.9,0-27,7.8-27,17.5c0,0.1,0,0.2,0,0.2
		c-19.1,1.4-33.6,8.7-33.6,17.5c0,9.8,18,17.8,40.3,17.8c13.6,0,25.6-3,32.9-7.5c2.4,0.3,4.8,0.5,7.4,0.5c16.8,0,30.5-7.4,30.5-16.5
		C463.7,335.4,453.3,328.8,439.5,327.2z"/>
	<path class="st12" d="M679.5,385.4c0-7.3-23.4-13.3-52.3-13.3c-1.7,0-3.4,0-5,0.1c-4.5-5.2-20.6-9.1-39.7-9.1
		c-22.6,0-40.9,5.4-40.9,12c0,2.3,2.2,4.5,6,6.3c-31.4,1.4-55,7.4-55,14.5c0,8.2,31.1,14.9,69.4,14.9c34,0,62.3-5.2,68.3-12.2
		C657.7,398.2,679.5,392.4,679.5,385.4z"/>
</g>
</svg>
