<?xml version="1.0" encoding="utf-8"?>
<!-- Generator: Adobe Illustrator 22.0.0, SVG Export Plug-In . SVG Version: 6.00 Build 0)  -->
<svg version="1.1" id="图层_1" xmlns="http://www.w3.org/2000/svg" xmlns:xlink="http://www.w3.org/1999/xlink" x="0px" y="0px"
	 viewBox="0 0 1024 1024" style="enable-background:new 0 0 1024 1024;" xml:space="preserve">
<style type="text/css">
	.st0{fill:#CCDAFE;}
	.st1{fill:#A8BEEF;}
	.st2{fill:url(#SVGID_1_);}
	.st3{fill:url(#SVGID_2_);}
	.st4{fill:#3B6CE4;}
	.st5{fill:url(#SVGID_3_);}
	.st6{fill:#FF7F2A;}
	.st7{fill:url(#SVGID_4_);}
	.st8{fill:url(#SVGID_5_);}
	.st9{fill:#FFFFFF;}
	.st10{fill:#353535;}
	.st11{fill:#FFD7CD;}
	.st12{fill:#8D4344;}
	.st13{fill:#274DA0;}
	.st14{fill:#DBEEFE;}
</style>
<g>
	<g>
		<g>
			<polygon class="st0" points="162.9,718.4 162.9,512.6 245.4,512.6 245.4,364.4 386,364.4 386,718.4 			"/>
			<g>
				<rect x="259.4" y="388.9" class="st1" width="28.8" height="23"/>
				<rect x="302.5" y="388.9" class="st1" width="28.8" height="23"/>
				<rect x="345.7" y="388.9" class="st1" width="28.8" height="23"/>
				<rect x="259.4" y="424.9" class="st1" width="28.8" height="23"/>
				<rect x="302.5" y="424.9" class="st1" width="28.8" height="23"/>
				<rect x="345.7" y="424.9" class="st1" width="28.8" height="23"/>
				<rect x="259.4" y="460.8" class="st1" width="28.8" height="23"/>
				<rect x="302.5" y="460.8" class="st1" width="28.8" height="23"/>
				<rect x="345.7" y="460.8" class="st1" width="28.8" height="23"/>
				<rect x="259.4" y="496.8" class="st1" width="28.8" height="23"/>
				<rect x="302.5" y="496.8" class="st1" width="28.8" height="23"/>
				<rect x="345.7" y="496.8" class="st1" width="28.8" height="23"/>
				<rect x="259.4" y="532.8" class="st1" width="28.8" height="23"/>
				<rect x="216.2" y="532.8" class="st1" width="28.8" height="23"/>
				<rect x="173" y="532.8" class="st1" width="28.8" height="23"/>
				<rect x="302.5" y="532.8" class="st1" width="28.8" height="23"/>
				<rect x="345.7" y="532.8" class="st1" width="28.8" height="23"/>
				<rect x="259.4" y="568.8" class="st1" width="28.8" height="23"/>
				<rect x="216.2" y="568.8" class="st1" width="28.8" height="23"/>
				<rect x="173" y="568.8" class="st1" width="28.8" height="23"/>
				<rect x="302.5" y="568.8" class="st1" width="28.8" height="23"/>
				<rect x="345.7" y="568.8" class="st1" width="28.8" height="23"/>
				<rect x="259.4" y="604.8" class="st1" width="28.8" height="23"/>
				<rect x="216.2" y="604.8" class="st1" width="28.8" height="23"/>
				<rect x="173" y="604.8" class="st1" width="28.8" height="23"/>
				<rect x="302.5" y="604.8" class="st1" width="28.8" height="23"/>
				<rect x="345.7" y="604.8" class="st1" width="28.8" height="23"/>
				<rect x="259.4" y="640.7" class="st1" width="28.8" height="23"/>
				<rect x="216.2" y="640.7" class="st1" width="28.8" height="23"/>
				<rect x="173" y="640.7" class="st1" width="28.8" height="23"/>
				<rect x="302.5" y="640.7" class="st1" width="28.8" height="23"/>
				<rect x="345.7" y="640.7" class="st1" width="28.8" height="23"/>
			</g>
		</g>
		<g>
			<polygon class="st0" points="635,715.6 635,586 698.3,586 698.3,436.4 794.7,436.4 794.7,506.9 850.8,506.9 850.8,715.6 			"/>
			<g>
				<rect x="712.7" y="455.1" class="st1" width="28.8" height="23"/>
				<rect x="753" y="455.1" class="st1" width="28.8" height="23"/>
				<rect x="712.7" y="599" class="st1" width="28.8" height="23"/>
				<rect x="672.4" y="599" class="st1" width="28.8" height="23"/>
				<rect x="672.4" y="635" class="st1" width="28.8" height="23"/>
				<rect x="753" y="599" class="st1" width="28.8" height="23"/>
				<rect x="712.7" y="491.1" class="st1" width="28.8" height="23"/>
				<rect x="753" y="491.1" class="st1" width="28.8" height="23"/>
				<rect x="712.7" y="527" class="st1" width="28.8" height="23"/>
				<rect x="753" y="527" class="st1" width="28.8" height="23"/>
				<rect x="793.3" y="527" class="st1" width="28.8" height="23"/>
				<rect x="793.3" y="563" class="st1" width="28.8" height="23"/>
				<rect x="793.3" y="599" class="st1" width="28.8" height="23"/>
				<rect x="793.3" y="635" class="st1" width="28.8" height="23"/>
				<rect x="712.7" y="563" class="st1" width="28.8" height="23"/>
				<rect x="753" y="563" class="st1" width="28.8" height="23"/>
				<rect x="712.7" y="635" class="st1" width="28.8" height="23"/>
				<rect x="753" y="635" class="st1" width="28.8" height="23"/>
			</g>
		</g>
		<g>
			<g>
				<linearGradient id="SVGID_1_" gradientUnits="userSpaceOnUse" x1="503.7208" y1="623.5539" x2="512.0779" y2="755.2529">
					<stop  offset="0" style="stop-color:#91B3FF"/>
					<stop  offset="0.4022" style="stop-color:#6791F2"/>
					<stop  offset="0.7939" style="stop-color:#3B6CE4"/>
				</linearGradient>
				<path class="st2" d="M92.4,753c0,0,164.1-131,411.6-131c233.1,0,427.4,131,427.4,131s-65.5-24.7-204.4-27.3
					c-76.3-1.4-132.4,24.5-225.9,24.5c-87.8,0-149.8-12.1-243.2-15.8C171.4,730.8,92.4,753,92.4,753z"/>
				<linearGradient id="SVGID_2_" gradientUnits="userSpaceOnUse" x1="519.4258" y1="620.5692" x2="523.4088" y2="683.3364">
					<stop  offset="0" style="stop-color:#91B3FF"/>
					<stop  offset="0.2484" style="stop-color:#6795EC"/>
					<stop  offset="0.7939" style="stop-color:#004CBF"/>
				</linearGradient>
				<path class="st3" d="M429.1,626c-5.5,3.8-8.6,8.1-8.6,12.5c0,17.1,44.8,30.9,100,30.9s100-13.9,100-30.9c0-2.2-0.8-4.4-2.3-6.6
					c-36.5-6.2-74.8-10-114.3-10C478.1,622,453.1,623.5,429.1,626z"/>
				
					<ellipse transform="matrix(0.9596 -0.2814 0.2814 0.9596 -181.0279 124.2326)" class="st4" cx="342.1" cy="692.5" rx="46.8" ry="15.8"/>
				
					<ellipse transform="matrix(0.2923 -0.9563 0.9563 0.2923 -286.8399 1039.2078)" class="st4" cx="558.7" cy="713.4" rx="12.2" ry="30.2"/>
			</g>
			<g>
				<g>
					<linearGradient id="SVGID_3_" gradientUnits="userSpaceOnUse" x1="743.9006" y1="651.3394" x2="706.9479" y2="601.0541">
						<stop  offset="0" style="stop-color:#EFBB81"/>
						<stop  offset="0.5011" style="stop-color:#F79E57"/>
						<stop  offset="1" style="stop-color:#FF7F2A"/>
					</linearGradient>
					<path class="st5" d="M749.7,630c4.9-5.1,7.4-11.8,6.4-18.6c-1.2-8.2-7.1-14.6-15.2-17.8c0.2-1.8,0.2-3.7-0.2-5.6
						c-1.9-9.1-10.8-15-19.8-13.1c-9,1.9-14.8,10.8-12.9,19.9c0.2,1.2,0.6,2.3,1.1,3.3c-6.9,5.4-10.9,13.4-9.7,21.6
						c0.6,3.8,2.1,7.2,4.5,10.1c-5.2,3.4-8.4,8-8.4,13c0,10.5,14,19,31.2,19s31.2-8.5,31.2-19C757.8,637.9,754.7,633.4,749.7,630z"
						/>
					<g>
						<g>
							<path class="st6" d="M726,688.3L726,688.3c-0.9-0.5-1.5-2.5-1.2-4.3c4.4-35.6,1.3-54.8-0.2-61.3c-0.4-1.6-0.1-3.4,0.6-4.4
								l0,0c0.9-1.3,2.1-0.7,2.6,1.4c1.8,8,5.1,28.9,0.4,66.1C727.9,687.7,727,688.9,726,688.3z"/>
						</g>
					</g>
				</g>
				<g>
					<linearGradient id="SVGID_4_" gradientUnits="userSpaceOnUse" x1="802.2309" y1="688.8685" x2="781.1479" y2="660.1788">
						<stop  offset="0" style="stop-color:#EFBB81"/>
						<stop  offset="0.5011" style="stop-color:#F79E57"/>
						<stop  offset="1" style="stop-color:#FF7F2A"/>
					</linearGradient>
					<path class="st7" d="M805.5,676.7c2.8-2.9,4.2-6.7,3.7-10.6c-0.7-4.7-4.1-8.3-8.7-10.2c0.1-1,0.1-2.1-0.1-3.2
						c-1.1-5.2-6.2-8.5-11.3-7.5c-5.2,1.1-8.4,6.2-7.3,11.4c0.1,0.7,0.3,1.3,0.6,1.9c-4,3.1-6.2,7.6-5.5,12.3
						c0.3,2.2,1.2,4.1,2.6,5.8c-3,1.9-4.8,4.5-4.8,7.4c0,6,8,10.8,17.8,10.8c9.8,0,17.8-4.9,17.8-10.8
						C810.2,681.2,808.4,678.6,805.5,676.7z"/>
					<g>
						<g>
							<path class="st6" d="M792,710L792,710c-0.5-0.3-0.8-1.4-0.7-2.5c2.5-20.3,0.8-31.2-0.1-35c-0.2-0.9-0.1-1.9,0.3-2.5l0,0
								c0.5-0.8,1.2-0.4,1.5,0.8c1,4.5,2.9,16.5,0.2,37.7C793.1,709.6,792.6,710.3,792,710z"/>
						</g>
					</g>
				</g>
			</g>
		</g>
	</g>
	<path class="st6" d="M535.3,304.1l41.6,84.3c2.4,4.8,7,8.2,12.3,9l93.1,13.5c13.4,2,18.8,18.5,9.1,27.9L624,504.5
		c-3.9,3.8-5.6,9.2-4.7,14.5l15.9,92.7c2.3,13.4-11.7,23.6-23.8,17.3l-83.2-43.8c-4.8-2.5-10.5-2.5-15.2,0l-83.2,43.8
		c-12,6.3-26.1-3.9-23.8-17.3l15.9-92.7c0.9-5.3-0.9-10.7-4.7-14.5l-67.3-65.6c-9.7-9.5-4.4-26,9.1-27.9l93.1-13.5
		c5.3-0.8,9.9-4.1,12.3-9l41.6-84.3C511.9,291.9,529.2,291.9,535.3,304.1z"/>
	<linearGradient id="SVGID_5_" gradientUnits="userSpaceOnUse" x1="397.7021" y1="346.803" x2="643.4344" y2="592.5353">
		<stop  offset="0" style="stop-color:#EFBB81"/>
		<stop  offset="0.3921" style="stop-color:#F79E57"/>
		<stop  offset="0.7824" style="stop-color:#FF7F2A"/>
	</linearGradient>
	<path class="st8" d="M535.3,283.5l41.6,84.3c2.4,4.8,7,8.2,12.3,9l93.1,13.5c13.4,2,18.8,18.5,9.1,27.9L624,483.8
		c-3.9,3.8-5.6,9.2-4.7,14.5l15.9,92.7c2.3,13.4-11.7,23.6-23.8,17.3l-83.2-43.8c-4.8-2.5-10.5-2.5-15.2,0l-83.2,43.8
		c-12,6.3-26.1-3.9-23.8-17.3l15.9-92.7c0.9-5.3-0.9-10.7-4.7-14.5l-67.3-65.6c-9.7-9.5-4.4-26,9.1-27.9l93.1-13.5
		c5.3-0.8,9.9-4.1,12.3-9l41.6-84.3C511.9,271.3,529.2,271.3,535.3,283.5z"/>
	<path class="st9" d="M537.6,372.6l-14.9-32.2c-1.7-3.7-0.1-8,3.6-9.7l0,0c3.7-1.7,8-0.1,9.7,3.6l14.9,32.2c1.7,3.7,0.1,8-3.6,9.7h0
		C543.7,377.9,539.3,376.3,537.6,372.6z"/>
	<path class="st9" d="M548,392L548,392c-1.7-3.7-0.1-8,3.6-9.7l0,0c3.7-1.7,8-0.1,9.7,3.6v0c1.7,3.7,0.1,8-3.6,9.7l0,0
		C554.1,397.3,549.7,395.6,548,392z"/>
	<g>
		<path class="st10" d="M404.4,705.5l12.8-6.8l-0.5-5.6l-5-2c0,0-11,7.8-12.1,9.4c-1.2,1.6-1.4,4.5,0,5.4S403.4,706.1,404.4,705.5z"
			/>
		<path class="st10" d="M457.4,696.9l12.6,6.2c0,0,2,0.8,3.7-0.7c1.7-1.6,0.7-4.1-0.8-5.5c-1.6-1.4-11.3-6.5-11.3-6.5l-4.4,2.3
			L457.4,696.9z"/>
		<path class="st11" d="M410.6,663l1.3,28.2l-7.6,6c-0.4,0.3-0.4,0.8-0.1,1.2l2.4,2.6c0.3,0.4,0.9,0.4,1.3,0.2l8.1-4.7
			c0.4-0.2,0.7-0.7,0.7-1.2l1.9-32.3H410.6z"/>
		<path class="st11" d="M449.6,663.8l7.7,30c0,0,0,0.1,0.1,0.1l8.2,4.1c0.2,0.1,0.5,0,0.6-0.2c0.4-0.8,1.3-2.7,2.2-3.1
			c0.1-0.1,0.1-0.2,0-0.3l-6.9-4.1c0,0-0.1-0.1-0.1-0.1l-4.9-28.9c0-0.1-0.1-0.2-0.2-0.1l-6.6,2.4
			C449.7,663.7,449.6,663.8,449.6,663.8z"/>
		<path class="st12" d="M425,480.7c0,0,5.6-4,9.8-3.4s8.3,2.3,10.4,6.2c2.1,4,1.1,11.6,0,16.3c-1.1,4.7-2.8,18.3-2.3,30
			s2.3,14.1-2.4,17.7c-4.7,3.6-13.2,7.2-23.5,3.8c-10.4-3.4-14-5.8-14.3-13c-0.3-7.2,11.5-26.7,12.6-35.1
			C416.3,494.9,419.1,483.7,425,480.7z"/>
		<path class="st11" d="M493.7,523.7c-3.4,1-5.1,1.6-7.1,1.8c-2,0.2-0.6-0.3,0-1.2s1.2-3-0.3-1.9c-2.7,2-2.8,1.9-3.8,2.3
			c-1.6,0.6-3-1.1-5.2,0.4c-1.7,1.2-0.7,2.8-3.7,5.7c-3.1,3-13.5,13.9-14.9,13.3c-3.8-1.7-16.9-23-16.9-23s-0.7-1.5-6.1-2.5
			c-3.3-0.6-4.9-2.2-5.1-3.1c-0.4-2.4,0.2-5.1,0.9-7c2.9-0.2,5.8-2.1,7.9-5.1c1,0.3,2.3-0.2,3.2-1.3c1.1-1.3,1.1-3.1,0.2-3.8
			c-0.2-0.2-0.5-0.3-0.8-0.3c0-0.1,0.1-0.3,0.1-0.4c1.8-7.3-0.8-14.2-6-15.5c-5.1-1.3-10.8,3.5-12.6,10.8c0,0.2-0.1,0.3-0.1,0.4
			c-0.1,0-0.1,0-0.2,0c-1.2,0-2.3,1.4-2.3,3.1c0,1.6,0.9,3,2.1,3.1c0.3,2.7,1.4,5.1,2.9,6.8c-0.9,2.8-2.4,6.5-4.2,7.7
			c-3,2.1-6,2.7-6,2.7s-4.3-1.2-7,0.9c-2.6,2.2-20.7,20.1-21.6,20.1c-0.8,0-12-14.9-12.1-16.4c-0.1-1.5-1.3-6.7-2.7-7.4
			c-2.8-1.3-3.6-0.2-4.7-1.6c-1.2-1.6-2.7-2.8-3.2-2c-0.5,0.8,1.5,3.4,1.5,3.4s-5.1-2.1-8.1-5.8c-0.3-0.4-1.9,0.5-0.8,2.6
			c1,2.2,6.8,7.3,13.2,11c5.9,3.5,9.1,20.9,10,22.7c1.3,2.5,3.4,4.9,6.4,2.8c3-2.1,25.6-18.1,25.6-18.1l24-0.1l18.5,23.7
			c0,0,2.2,2.4,4.2,0.8c1.9-1.5,9.4-12.3,15.4-19.3c1.6-1.9,3.9-3.1,6.3-3.3c2.2-0.2,4.3,0,5.5-0.5c2.1-0.8,7.8-2.9,8.8-4.6
			C495.7,523.7,495.1,523.2,493.7,523.7z"/>
		<path class="st13" d="M405.4,567.1c0,0-6.5,11-6.8,20.2c-0.3,9.2,3.4,21.7,5.4,27.7s4,8.2,3.4,16c-0.6,7.8-1.2,18.6,0.1,29.1
			s1.7,15.7,1.7,15.7l11.2-3.7l1-77.1l4.5-0.7c0,0,13.6,43.6,14.2,46.3s8.9,31.5,8.9,31.5s6.1,1,10.3-4.8s-9.2-30.4-9.9-35.6
			c-0.7-5.2-2.8-53.4-9-61.3c-6.2-7.9-5.1-5.8-5.1-5.8L405.4,567.1z"/>
		<path class="st14" d="M405.5,534l-7.1-8.3c-0.3-0.3-0.3-0.8,0-1.1c1.6-1.7,6.2-6.6,9.3-8.7c0.9-0.6,2-1,3.1-1h4.9
			c1,0,1.9,0.3,2.7,0.9l4.8,3.6c1.8,1.4,4.2,1.5,6.2,0.4l3.1-1.8c1.3-0.8,2.9-1,4.4-0.7c2.3,0.4,4.7,0.8,6.3,2.7
			c1.4,1.7,5.8,8.2,7.2,10.1c0.2,0.3,0.1,0.7-0.2,0.9l-9.1,6.2c-0.3,0.2-0.7,0.1-0.9-0.1l-2.3-2.9c-0.2-0.2-0.5-0.1-0.5,0.1
			c-0.2,2.8-0.8,13.2,0.2,17.8c1.1,5.4,4.7,17.1,4.7,17.1s-7,3.5-11.9,4.9c-3.2,1-12,0.6-17.8-1.3c-5.8-1.8-11.9-3-11.9-3
			s8.5-15.7,9.4-22.9c0.6-4.9,1-12.2,1.1-15.3c0-0.5-0.6-0.8-1-0.5l-3.8,2.9C406.3,534.4,405.8,534.4,405.5,534z"/>
		<path class="st12" d="M423.3,489.9c0,0,9.8-1,13.4-8.2c0,0-1.8-3.3-6.1-1.4C426.3,482.2,423.3,489.9,423.3,489.9z"/>
		<path class="st12" d="M434.1,483.6c0,0,2,8,9.1,13.1l1.3-7.7l-7.3-9.7L434.1,483.6z"/>
	</g>
</g>
</svg>
