<?xml version="1.0" encoding="utf-8"?>
<!-- Generator: Adobe Illustrator 22.0.0, SVG Export Plug-In . SVG Version: 6.00 Build 0)  -->
<svg version="1.1" id="图层_1" xmlns="http://www.w3.org/2000/svg" xmlns:xlink="http://www.w3.org/1999/xlink" x="0px" y="0px"
	 viewBox="0 0 1024 1024" style="enable-background:new 0 0 1024 1024;" xml:space="preserve">
<style type="text/css">
	.st0{fill:#CCDAFE;}
	.st1{fill:#A8BEEF;}
	.st2{fill:url(#SVGID_1_);}
	.st3{fill:url(#SVGID_2_);}
	.st4{fill:#3B6CE4;}
	.st5{fill:url(#SVGID_3_);}
	.st6{fill:#FF7F2A;}
	.st7{fill:url(#SVGID_4_);}
	.st8{fill:#FFFFFF;}
	.st9{fill:url(#SVGID_5_);}
	.st10{fill:#C69767;}
	.st11{fill:#EFBB81;}
	.st12{fill:#B9D8ED;}
	.st13{fill:#353535;}
	.st14{fill:#63393F;}
	.st15{fill:#274DA0;}
	.st16{fill:#FDCACA;}
	.st17{fill:#DBEEFE;}
	.st18{fill:#183F8C;}
</style>
<g>
	<g>
		<g>
			<polygon class="st0" points="163,716.1 163,510.3 245.5,510.3 245.5,362.1 386.1,362.1 386.1,716.1 			"/>
			<g>
				<rect x="259.5" y="386.6" class="st1" width="28.8" height="23"/>
				<rect x="302.6" y="386.6" class="st1" width="28.8" height="23"/>
				<rect x="345.8" y="386.6" class="st1" width="28.8" height="23"/>
				<rect x="259.5" y="422.6" class="st1" width="28.8" height="23"/>
				<rect x="302.6" y="422.6" class="st1" width="28.8" height="23"/>
				<rect x="345.8" y="422.6" class="st1" width="28.8" height="23"/>
				<rect x="259.5" y="458.5" class="st1" width="28.8" height="23"/>
				<rect x="302.6" y="458.5" class="st1" width="28.8" height="23"/>
				<rect x="345.8" y="458.5" class="st1" width="28.8" height="23"/>
				<rect x="259.5" y="494.5" class="st1" width="28.8" height="23"/>
				<rect x="302.6" y="494.5" class="st1" width="28.8" height="23"/>
				<rect x="345.8" y="494.5" class="st1" width="28.8" height="23"/>
				<rect x="259.5" y="530.5" class="st1" width="28.8" height="23"/>
				<rect x="216.3" y="530.5" class="st1" width="28.8" height="23"/>
				<rect x="173.1" y="530.5" class="st1" width="28.8" height="23"/>
				<rect x="302.6" y="530.5" class="st1" width="28.8" height="23"/>
				<rect x="345.8" y="530.5" class="st1" width="28.8" height="23"/>
				<rect x="259.5" y="566.5" class="st1" width="28.8" height="23"/>
				<rect x="216.3" y="566.5" class="st1" width="28.8" height="23"/>
				<rect x="173.1" y="566.5" class="st1" width="28.8" height="23"/>
				<rect x="302.6" y="566.5" class="st1" width="28.8" height="23"/>
				<rect x="345.8" y="566.5" class="st1" width="28.8" height="23"/>
				<rect x="259.5" y="602.4" class="st1" width="28.8" height="23"/>
				<rect x="216.3" y="602.4" class="st1" width="28.8" height="23"/>
				<rect x="173.1" y="602.4" class="st1" width="28.8" height="23"/>
				<rect x="302.6" y="602.4" class="st1" width="28.8" height="23"/>
				<rect x="345.8" y="602.4" class="st1" width="28.8" height="23"/>
				<rect x="259.5" y="638.4" class="st1" width="28.8" height="23"/>
				<rect x="216.3" y="638.4" class="st1" width="28.8" height="23"/>
				<rect x="173.1" y="638.4" class="st1" width="28.8" height="23"/>
				<rect x="302.6" y="638.4" class="st1" width="28.8" height="23"/>
				<rect x="345.8" y="638.4" class="st1" width="28.8" height="23"/>
			</g>
		</g>
		<g>
			<polygon class="st0" points="635.1,713.3 635.1,583.7 698.4,583.7 698.4,434.1 794.8,434.1 794.8,504.6 850.9,504.6 850.9,713.3 
							"/>
			<g>
				<rect x="712.8" y="452.8" class="st1" width="28.8" height="23"/>
				<rect x="753.1" y="452.8" class="st1" width="28.8" height="23"/>
				<rect x="712.8" y="596.7" class="st1" width="28.8" height="23"/>
				<rect x="672.5" y="596.7" class="st1" width="28.8" height="23"/>
				<rect x="672.5" y="632.7" class="st1" width="28.8" height="23"/>
				<rect x="753.1" y="596.7" class="st1" width="28.8" height="23"/>
				<rect x="712.8" y="488.8" class="st1" width="28.8" height="23"/>
				<rect x="753.1" y="488.8" class="st1" width="28.8" height="23"/>
				<rect x="712.8" y="524.7" class="st1" width="28.8" height="23"/>
				<rect x="753.1" y="524.7" class="st1" width="28.8" height="23"/>
				<rect x="793.4" y="524.7" class="st1" width="28.8" height="23"/>
				<rect x="793.4" y="560.7" class="st1" width="28.8" height="23"/>
				<rect x="793.4" y="596.7" class="st1" width="28.8" height="23"/>
				<rect x="793.4" y="632.7" class="st1" width="28.8" height="23"/>
				<rect x="712.8" y="560.7" class="st1" width="28.8" height="23"/>
				<rect x="753.1" y="560.7" class="st1" width="28.8" height="23"/>
				<rect x="712.8" y="632.7" class="st1" width="28.8" height="23"/>
				<rect x="753.1" y="632.7" class="st1" width="28.8" height="23"/>
			</g>
		</g>
		<g>
			<g>
				<linearGradient id="SVGID_1_" gradientUnits="userSpaceOnUse" x1="503.8089" y1="621.252" x2="512.1661" y2="752.951">
					<stop  offset="0" style="stop-color:#91B3FF"/>
					<stop  offset="0.4022" style="stop-color:#6791F2"/>
					<stop  offset="0.7939" style="stop-color:#3B6CE4"/>
				</linearGradient>
				<path class="st2" d="M92.5,750.7c0,0,164.1-131,411.6-131c233.1,0,427.4,131,427.4,131S866,726,727.2,723.3
					c-76.3-1.4-132.4,24.5-225.9,24.5c-87.8,0-149.8-12.1-243.2-15.8C171.5,728.5,92.5,750.7,92.5,750.7z"/>
				<linearGradient id="SVGID_2_" gradientUnits="userSpaceOnUse" x1="519.5139" y1="618.2672" x2="523.4969" y2="681.0345">
					<stop  offset="0" style="stop-color:#91B3FF"/>
					<stop  offset="0.2484" style="stop-color:#6795EC"/>
					<stop  offset="0.7939" style="stop-color:#004CBF"/>
				</linearGradient>
				<path class="st3" d="M429.2,623.7c-5.5,3.8-8.6,8.1-8.6,12.5c0,17.1,44.8,30.9,100,30.9s100-13.9,100-30.9
					c0-2.2-0.8-4.4-2.3-6.6c-36.5-6.2-74.8-10-114.3-10C478.2,619.7,453.2,621.2,429.2,623.7z"/>
				
					<ellipse transform="matrix(0.9596 -0.2814 0.2814 0.9596 -180.3767 124.1644)" class="st4" cx="342.2" cy="690.2" rx="46.8" ry="15.8"/>
				
					<ellipse transform="matrix(0.2923 -0.9563 0.9563 0.2923 -284.5762 1037.6628)" class="st4" cx="558.8" cy="711.1" rx="12.2" ry="30.2"/>
			</g>
			<g>
				<g>
					<linearGradient id="SVGID_3_" gradientUnits="userSpaceOnUse" x1="743.9888" y1="649.0374" x2="707.036" y2="598.7522">
						<stop  offset="0" style="stop-color:#EFBB81"/>
						<stop  offset="0.5011" style="stop-color:#F79E57"/>
						<stop  offset="1" style="stop-color:#FF7F2A"/>
					</linearGradient>
					<path class="st5" d="M749.8,627.7c4.9-5.1,7.4-11.8,6.4-18.6c-1.2-8.2-7.1-14.6-15.2-17.8c0.2-1.8,0.2-3.7-0.2-5.6
						c-1.9-9.1-10.8-15-19.8-13.1c-9,1.9-14.8,10.8-12.9,19.9c0.2,1.2,0.6,2.3,1.1,3.3c-6.9,5.4-10.9,13.4-9.7,21.6
						c0.6,3.8,2.1,7.2,4.5,10.1c-5.2,3.4-8.4,8-8.4,13c0,10.5,14,19,31.2,19s31.2-8.5,31.2-19C757.9,635.6,754.8,631.1,749.8,627.7z
						"/>
					<g>
						<g>
							<path class="st6" d="M726.1,686L726.1,686c-0.9-0.5-1.5-2.5-1.2-4.3c4.4-35.6,1.3-54.8-0.2-61.3c-0.4-1.6-0.1-3.4,0.6-4.4
								l0,0c0.9-1.3,2.1-0.7,2.6,1.4c1.8,8,5.1,28.9,0.4,66.1C728,685.4,727,686.6,726.1,686z"/>
						</g>
					</g>
				</g>
				<g>
					<linearGradient id="SVGID_4_" gradientUnits="userSpaceOnUse" x1="802.319" y1="686.5665" x2="781.2361" y2="657.8769">
						<stop  offset="0" style="stop-color:#EFBB81"/>
						<stop  offset="0.5011" style="stop-color:#F79E57"/>
						<stop  offset="1" style="stop-color:#FF7F2A"/>
					</linearGradient>
					<path class="st7" d="M805.6,674.4c2.8-2.9,4.2-6.7,3.7-10.6c-0.7-4.7-4.1-8.3-8.7-10.2c0.1-1,0.1-2.1-0.1-3.2
						c-1.1-5.2-6.2-8.5-11.3-7.5s-8.4,6.2-7.3,11.4c0.1,0.7,0.3,1.3,0.6,1.9c-4,3.1-6.2,7.6-5.5,12.3c0.3,2.2,1.2,4.1,2.6,5.8
						c-3,1.9-4.8,4.5-4.8,7.4c0,6,8,10.8,17.8,10.8c9.8,0,17.8-4.9,17.8-10.8C810.3,678.9,808.5,676.3,805.6,674.4z"/>
					<g>
						<g>
							<path class="st6" d="M792.1,707.7L792.1,707.7c-0.5-0.3-0.8-1.4-0.7-2.5c2.5-20.3,0.8-31.2-0.1-35c-0.2-0.9-0.1-1.9,0.3-2.5
								l0,0c0.5-0.8,1.2-0.4,1.5,0.8c1,4.5,2.9,16.5,0.2,37.7C793.2,707.3,792.6,708,792.1,707.7z"/>
						</g>
					</g>
				</g>
			</g>
		</g>
	</g>
	<g>
		<path class="st4" d="M647.1,636.2H376.9c-5.5,0-9.9-4.4-9.9-9.9V306.1c0-5.5,4.4-9.9,9.9-9.9h270.2c5.5,0,9.9,4.4,9.9,9.9v320.2
			C657,631.7,652.6,636.2,647.1,636.2z"/>
		<path class="st8" d="M387,608.3V324.1c0-4.4,3.5-7.9,7.9-7.9h234.2c4.4,0,7.9,3.5,7.9,7.9v284.2c0,4.4-3.5,7.9-7.9,7.9H394.9
			C390.6,616.2,387,612.6,387,608.3z"/>
		<linearGradient id="SVGID_5_" gradientUnits="userSpaceOnUse" x1="512.0217" y1="274.3408" x2="512.0217" y2="332.0915">
			<stop  offset="0" style="stop-color:#EFBB81"/>
			<stop  offset="0.5011" style="stop-color:#F79E57"/>
			<stop  offset="1" style="stop-color:#FF7F2A"/>
		</linearGradient>
		<path class="st9" d="M592.2,332.8H431.8c-3.3,0-6-2.7-6-6v-48c0-3.3,2.7-6,6-6h160.4c3.3,0,6,2.7,6,6v48
			C598.2,330.2,595.6,332.8,592.2,332.8z"/>
		<g>
			<path class="st10" d="M423,382.1h178c5.5,0,10-4.5,10-10c0-5.5-4.5-10-10-10H423c-5.5,0-10,4.5-10,10
				C413,377.6,417.5,382.1,423,382.1z"/>
			<path class="st10" d="M601,407.3H423c-5.5,0-10,4.5-10,10c0,5.5,4.5,10,10,10h178c5.5,0,10-4.5,10-10
				C611,411.8,606.5,407.3,601,407.3z"/>
			<path class="st10" d="M601,452.5H493.7c-5.5,0-10,4.5-10,10c0,5.5,4.5,10,10,10H601c5.5,0,10-4.5,10-10
				C611,457,606.5,452.5,601,452.5z"/>
			<path class="st10" d="M601,497.7h-70.4c-5.5,0-10,4.5-10,10c0,5.5,4.5,10,10,10H601c5.5,0,10-4.5,10-10
				C611,502.2,606.5,497.7,601,497.7z"/>
		</g>
		<g>
			<path class="st11" d="M423,378h178c5.5,0,10-4.5,10-10c0-5.5-4.5-10-10-10H423c-5.5,0-10,4.5-10,10C413,373.6,417.5,378,423,378z
				"/>
			<path class="st11" d="M601,403.2H423c-5.5,0-10,4.5-10,10c0,5.5,4.5,10,10,10h178c5.5,0,10-4.5,10-10
				C611,407.7,606.5,403.2,601,403.2z"/>
			<path class="st11" d="M601,448.4H493.7c-5.5,0-10,4.5-10,10c0,5.5,4.5,10,10,10H601c5.5,0,10-4.5,10-10
				C611,452.9,606.5,448.4,601,448.4z"/>
			<path class="st11" d="M601,493.6h-70.4c-5.5,0-10,4.5-10,10c0,5.5,4.5,10,10,10H601c5.5,0,10-4.5,10-10
				C611,498.1,606.5,493.6,601,493.6z"/>
		</g>
		<circle class="st6" cx="453.1" cy="303.5" r="7.3"/>
		<circle class="st6" cx="570.9" cy="303.5" r="7.3"/>
	</g>
	<g>
		<polygon class="st12" points="435,500.8 450.3,500.8 454,505.8 445.2,515.4 439.8,515.4 432.7,504.2 		"/>
		<path class="st13" d="M408.1,685.1c0,0-1,5.4-3.5,7.3s-7.3,3.7-8.8,6.4c-1.6,2.7-0.6,9.6-0.6,9.6s5.2,2.1,8.2,0.6
			c3.1-1.5,7.3-6.7,8.7-7.4s3.8-2.3,3.8-2.3V684L408.1,685.1z"/>
		<path class="st13" d="M454.1,684.6c0,0,1,5.4,3.5,7.3c2.5,1.9,7.3,3.7,8.8,6.4s0.6,9.6,0.6,9.6s-5.2,2.1-8.2,0.6s-7.3-6.7-8.7-7.4
			c-1.5-0.7-3.8-2.3-3.8-2.3v-15.3L454.1,684.6z"/>
		<path class="st14" d="M432.1,485.2c0,0-3.7-1.5-3.1-9.6c0.6-8.2,0.5-9.8,5.1-12.3c6.7-3.7,9.8-0.7,10.4-1.3
			c0.6-0.6,9.3-8.1,13.7-1c4.4,7.2,0,22.3-3.1,23.5C449.2,486.7,432.1,485.2,432.1,485.2z"/>
		<path class="st15" d="M420.8,576c0,0-1.5,33-5.5,56.2c-4,23.3-9.4,55.5-9.4,55.5s11.2,0.4,13.4-1.3c2.2-1.8,7.5-34.9,7.8-36.8
			c0.3-1.9,11.9-56.7,11.9-56.7l6-0.3l-1.8,93.8c0,0,5.4,3.2,14.2,1.4c0,0-0.4-20.3,0.8-28.8s2.7-30.9,2.7-40.3
			c0-9.4,0.9-42.6,0.9-42.6H420.8z"/>
		<path class="st16" d="M433.5,472.7c0,0-0.1,7.8,0.1,10.1c0,0-3.6-0.2-3.3,2.9s1.8,4.7,3.2,4.5c0,0,0.4,4.7,3.8,7.3
			c2.5,1.8,4,2.3,6.2,2.5c3,0.2,6-0.7,8.6-4.6c0.7-1.1,1.5-4.6,1.5-4.6s2.3,0.6,3-3.4c0.7-4-1.5-3.8-1.5-3.8s1.9-9.3,0.6-12.2
			c-1.1-2.6-3.1-6.3-9.3-6.3C440.1,465,435.2,465.2,433.5,472.7z"/>
		<path class="st16" d="M439.2,496.1c0,0,0.1,9.6-4.7,12.3l7.5,12.6l10.3-13.9c0,0-4.8-0.1-5.4-3.8c-0.6-3.6-0.7-7.3-0.7-7.3H439.2z
			"/>
		<path class="st17" d="M434.5,505.6c0,0-12.5-0.3-16,2.2c-1.8,1.3-30.8,24.4-31.6,33.4c-0.8,8.8,21.9,27.5,21.9,27.5l5.3-6.3
			l-9.7-17.4c-0.7-1.2-0.5-2.7,0.4-3.7l15.7-16.7c0,0,1.6,23.9,0.4,34.7c-1.2,10.9-3.1,20.7-3.1,20.7s7.1,2.5,22,2.2
			s23.3-2.2,23.3-2.2s-2.7-20.3-2.8-33c-0.1-12.7,0.6-23,0.6-23l14.9,14.2c2.2,2.1,2.6,5.5,1,8.1l-10.1,16.6l6.4,6
			c0,0,20.4-19.7,20.4-27.8c0-10.3-27.9-31.5-29.7-32.8c-5.1-3.8-13-3.2-13-3.2l-8.1,12.4L434.5,505.6z"/>
		<path class="st14" d="M430.9,482.6c0,0,2.8,5.5,3.6,0.8c0.7-4,2.3-7,0.9-7.8c-1.3-0.8,3.7-4.1,5.3-3.2c1.6,0.9,3.7,0.5,4.6,3.5
			c0.9,3,4.3,0.5,5.2,1.9c1.3,1.9,0.3,2,0.7,4.6c0.4,2.6,3.4,0.8,2.8,4.1c-0.2,1,4.2-6.9,4.2-6.9l-1.5-15.5l-15.9-1.9l-9.2,5.7
			L430.9,482.6z"/>
		<path class="st12" d="M430.6,505.6l4.3-4.3l5.9,8.7c0.9,1.4,3,1.4,3.9-0.1l5.7-8.9l5,4.4l-6.5,13.7l-6.3-5.1l-6.5,5L430.6,505.6z"
			/>
		<path class="st18" d="M442.6,511.4c0,0-4.2,3.9-0.8,9.2l-2.9,34.9l3.7,6.8l3.4-6.9l-2.7-34.8C443.3,520.7,446.3,515.2,442.6,511.4
			z"/>
		<polygon class="st12" points="418.7,526.6 421.7,520.6 420.7,527.8 420.5,524.7 		"/>
		<path class="st12" d="M460.6,554.5l0.2,3.3c0,0-2.7,4.6-14.8,5.3C446,563.1,456.5,560.7,460.6,554.5z"/>
		<path class="st12" d="M405.1,541c0,0-6.5,1.5-9.4-0.7c0,0,2.5,4.1,8.3,3.9C404,544.1,403.5,542.3,405.1,541z"/>
		<path class="st12" d="M477.1,540.1c0,0,2,1.3,3.9-4.2c0,0-0.8,5.8-3.3,8C477.7,544,478.2,542,477.1,540.1z"/>
		<path class="st16" d="M413.2,563.5c0,0,1,1.2,2,1.3c3.6,0.3,4-1.2,8-1.4c4.1-0.2,8.6,1.3,8.9,2c0.3,0.6,0.2,1.8-0.7,1.8
			c-0.9,0-6.5-1-6.5-1s3.3,2.8,4.2,4c0.8,1.1,1.6,2,0.6,2.6c-0.6,0.4-2.5-1.4-2.5-1.4s1.3,2,1.2,2.3c-0.1,0.4-0.5,0.7-1.4,0.3
			c-1.1-0.5-2.1-1.6-2.1-1.6s1.9,1.9,1.2,2.6c-0.8,0.7-2.7-0.8-2.7-0.8s-3.9-2.7-4.5-3.5s-1.8-0.8-2.6-0.3c-0.7,0.5-2.7,1.9-5.7-1.8
			c-0.3-0.4-0.6-0.8-0.6-0.8L413.2,563.5z"/>
		<path class="st16" d="M467.7,564c0,0-0.2,0.7-1.1,0.7c-3.6,0.3-4-1.2-8-1.4c-4.1-0.2-8.6,1.3-8.9,2c-0.3,0.6-0.2,1.8,0.7,1.8
			c0.9,0,6.5-1,6.5-1s-3.3,2.8-4.2,4c-0.8,1.1-1.6,2-0.6,2.6c0.6,0.4,2.5-1.4,2.5-1.4s-1.3,2-1.2,2.3c0.1,0.4,0.5,0.7,1.4,0.3
			c1.1-0.5,2.1-1.6,2.1-1.6s-1.9,1.9-1.2,2.6c0.8,0.7,2.7-0.8,2.7-0.8s3.9-2.7,4.5-3.5s1.8-0.8,2.6-0.3c0.7,0.5,2.7,1.9,5.7-1.8
			c0.3-0.4,0.5-0.4,0.5-0.4L467.7,564z"/>
	</g>
</g>
</svg>
