<?xml version="1.0" encoding="utf-8"?>
<!-- Generator: Adobe Illustrator 22.0.0, SVG Export Plug-In . SVG Version: 6.00 Build 0)  -->
<svg version="1.1" id="图层_1" xmlns="http://www.w3.org/2000/svg" xmlns:xlink="http://www.w3.org/1999/xlink" x="0px" y="0px"
	 viewBox="0 0 1024 1024" style="enable-background:new 0 0 1024 1024;" xml:space="preserve">
<style type="text/css">
	.st0{fill:#1E53A8;}
	.st1{fill:#CCDAFE;}
	.st2{fill:#A8BEEF;}
	.st3{fill:url(#SVGID_1_);}
	.st4{fill:url(#SVGID_2_);}
	.st5{fill:#3B6CE4;}
	.st6{fill:url(#SVGID_3_);}
	.st7{fill:#FF7F2A;}
	.st8{fill:url(#SVGID_4_);}
	.st9{fill:#EDAA24;}
	.st10{fill:#F4F4F4;}
	.st11{fill:url(#SVGID_5_);}
	.st12{opacity:0.13;}
	.st13{fill:#5D94FA;}
	.st14{fill:#FFFFFF;}
	.st15{fill:url(#SVGID_6_);}
	.st16{fill:url(#SVGID_7_);}
	.st17{fill:url(#SVGID_8_);}
	.st18{fill:url(#SVGID_9_);}
	.st19{fill:url(#SVGID_10_);}
	.st20{fill:url(#SVGID_11_);}
</style>
<g>
	<path class="st0" d="M646.6,317.5c-6.2,0-12.1,0.6-17.2,1.7c-3.1-1.1-6.8-1.9-10.8-2.5c-1.6-7.1-16.7-12.7-35.2-12.7
		c-19.5,0-35.4,6.2-35.4,13.9c0,0.3,0,0.5,0.1,0.8c-12.4,2.2-21.1,7-21.1,12.7c0,7.7,15.8,13.9,35.4,13.9c9.6,0,18.2-1.5,24.6-3.9
		c5.5,1.4,12.1,2.2,19.2,2.2c6.2,0,12.1-0.6,17.2-1.7c6.2,2.1,14.4,3.4,23.3,3.4c19.5,0,35.4-6.2,35.4-13.9
		C682,323.7,666.2,317.5,646.6,317.5z"/>
	<g>
		<g>
			<g>
				<polygon class="st1" points="162.7,709.5 162.7,503.7 245.1,503.7 245.1,355.4 385.8,355.4 385.8,709.5 				"/>
				<g>
					<rect x="259.1" y="379.9" class="st2" width="28.8" height="23"/>
					<rect x="302.3" y="379.9" class="st2" width="28.8" height="23"/>
					<rect x="345.5" y="379.9" class="st2" width="28.8" height="23"/>
					<rect x="259.1" y="415.9" class="st2" width="28.8" height="23"/>
					<rect x="302.3" y="415.9" class="st2" width="28.8" height="23"/>
					<rect x="345.5" y="415.9" class="st2" width="28.8" height="23"/>
					<rect x="259.1" y="451.9" class="st2" width="28.8" height="23"/>
					<rect x="302.3" y="451.9" class="st2" width="28.8" height="23"/>
					<rect x="345.5" y="451.9" class="st2" width="28.8" height="23"/>
					<rect x="259.1" y="487.8" class="st2" width="28.8" height="23"/>
					<rect x="302.3" y="487.8" class="st2" width="28.8" height="23"/>
					<rect x="345.5" y="487.8" class="st2" width="28.8" height="23"/>
					<rect x="259.1" y="523.8" class="st2" width="28.8" height="23"/>
					<rect x="215.9" y="523.8" class="st2" width="28.8" height="23"/>
					<rect x="172.8" y="523.8" class="st2" width="28.8" height="23"/>
					<rect x="302.3" y="523.8" class="st2" width="28.8" height="23"/>
					<rect x="345.5" y="523.8" class="st2" width="28.8" height="23"/>
					<rect x="259.1" y="559.8" class="st2" width="28.8" height="23"/>
					<rect x="215.9" y="559.8" class="st2" width="28.8" height="23"/>
					<rect x="172.8" y="559.8" class="st2" width="28.8" height="23"/>
					<rect x="302.3" y="559.8" class="st2" width="28.8" height="23"/>
					<rect x="345.5" y="559.8" class="st2" width="28.8" height="23"/>
					<rect x="259.1" y="595.8" class="st2" width="28.8" height="23"/>
					<rect x="215.9" y="595.8" class="st2" width="28.8" height="23"/>
					<rect x="172.8" y="595.8" class="st2" width="28.8" height="23"/>
					<rect x="302.3" y="595.8" class="st2" width="28.8" height="23"/>
					<rect x="345.5" y="595.8" class="st2" width="28.8" height="23"/>
					<rect x="259.1" y="631.8" class="st2" width="28.8" height="23"/>
					<rect x="215.9" y="631.8" class="st2" width="28.8" height="23"/>
					<rect x="172.8" y="631.8" class="st2" width="28.8" height="23"/>
					<rect x="302.3" y="631.8" class="st2" width="28.8" height="23"/>
					<rect x="345.5" y="631.8" class="st2" width="28.8" height="23"/>
				</g>
			</g>
			<g>
				<polygon class="st1" points="634.7,706.6 634.7,577.1 698,577.1 698,427.4 794.5,427.4 794.5,497.9 850.6,497.9 850.6,706.6 
									"/>
				<g>
					<rect x="712.4" y="446.1" class="st2" width="28.8" height="23"/>
					<rect x="752.7" y="446.1" class="st2" width="28.8" height="23"/>
					<rect x="712.4" y="590" class="st2" width="28.8" height="23"/>
					<rect x="672.1" y="590" class="st2" width="28.8" height="23"/>
					<rect x="672.1" y="626" class="st2" width="28.8" height="23"/>
					<rect x="752.7" y="590" class="st2" width="28.8" height="23"/>
					<rect x="712.4" y="482.1" class="st2" width="28.8" height="23"/>
					<rect x="752.7" y="482.1" class="st2" width="28.8" height="23"/>
					<rect x="712.4" y="518.1" class="st2" width="28.8" height="23"/>
					<rect x="752.7" y="518.1" class="st2" width="28.8" height="23"/>
					<rect x="793" y="518.1" class="st2" width="28.8" height="23"/>
					<rect x="793" y="554" class="st2" width="28.8" height="23"/>
					<rect x="793" y="590" class="st2" width="28.8" height="23"/>
					<rect x="793" y="626" class="st2" width="28.8" height="23"/>
					<rect x="712.4" y="554" class="st2" width="28.8" height="23"/>
					<rect x="752.7" y="554" class="st2" width="28.8" height="23"/>
					<rect x="712.4" y="626" class="st2" width="28.8" height="23"/>
					<rect x="752.7" y="626" class="st2" width="28.8" height="23"/>
				</g>
			</g>
			<g>
				<g>
					<linearGradient id="SVGID_1_" gradientUnits="userSpaceOnUse" x1="503.4713" y1="614.5834" x2="511.8284" y2="746.2823">
						<stop  offset="0" style="stop-color:#91B3FF"/>
						<stop  offset="0.4022" style="stop-color:#6791F2"/>
						<stop  offset="0.7939" style="stop-color:#3B6CE4"/>
					</linearGradient>
					<path class="st3" d="M92.2,744c0,0,164.1-131,411.6-131c233.1,0,427.4,131,427.4,131s-65.5-24.7-204.4-27.3
						c-76.3-1.4-132.4,24.5-225.9,24.5c-87.8,0-149.8-12.1-243.2-15.8C171.2,721.8,92.2,744,92.2,744z"/>
					<linearGradient id="SVGID_2_" gradientUnits="userSpaceOnUse" x1="519.1763" y1="611.5986" x2="523.1592" y2="674.3658">
						<stop  offset="0" style="stop-color:#91B3FF"/>
						<stop  offset="0.2484" style="stop-color:#6795EC"/>
						<stop  offset="0.7939" style="stop-color:#004CBF"/>
					</linearGradient>
					<path class="st4" d="M428.9,617.1c-5.5,3.8-8.6,8.1-8.6,12.5c0,17.1,44.8,30.9,100,30.9s100-13.9,100-30.9
						c0-2.2-0.8-4.4-2.3-6.6c-36.5-6.2-74.8-10-114.3-10C477.9,613,452.9,614.5,428.9,617.1z"/>
					
						<ellipse transform="matrix(0.9596 -0.2814 0.2814 0.9596 -178.5141 123.8)" class="st5" cx="341.9" cy="683.6" rx="46.8" ry="15.8"/>
					
						<ellipse transform="matrix(0.2923 -0.9563 0.9563 0.2923 -278.4377 1032.6204)" class="st5" cx="558.5" cy="704.4" rx="12.2" ry="30.2"/>
				</g>
				<g>
					<g>
						<linearGradient id="SVGID_3_" gradientUnits="userSpaceOnUse" x1="743.6511" y1="642.3688" x2="706.6983" y2="592.0836">
							<stop  offset="0" style="stop-color:#EFBB81"/>
							<stop  offset="0.5011" style="stop-color:#F79E57"/>
							<stop  offset="1" style="stop-color:#FF7F2A"/>
						</linearGradient>
						<path class="st6" d="M749.4,621c4.9-5.1,7.4-11.8,6.4-18.6c-1.2-8.2-7.1-14.6-15.2-17.8c0.2-1.8,0.2-3.7-0.2-5.6
							c-1.9-9.1-10.8-15-19.8-13.1c-9,1.9-14.8,10.8-12.9,19.9c0.2,1.2,0.6,2.3,1.1,3.3c-6.9,5.4-10.9,13.4-9.7,21.6
							c0.6,3.8,2.1,7.2,4.5,10.1c-5.2,3.4-8.4,8-8.4,13c0,10.5,14,19,31.2,19c17.2,0,31.2-8.5,31.2-19
							C757.6,628.9,754.5,624.4,749.4,621z"/>
						<g>
							<g>
								<path class="st7" d="M725.8,679.4L725.8,679.4c-0.9-0.5-1.5-2.5-1.2-4.3c4.4-35.6,1.3-54.8-0.2-61.3
									c-0.4-1.6-0.1-3.4,0.6-4.4l0,0c0.9-1.3,2.1-0.7,2.6,1.4c1.8,8,5.1,28.9,0.4,66.1C727.7,678.7,726.7,679.9,725.8,679.4z"/>
							</g>
						</g>
					</g>
					<g>
						<linearGradient id="SVGID_4_" gradientUnits="userSpaceOnUse" x1="801.9814" y1="679.8979" x2="780.8984" y2="651.2083">
							<stop  offset="0" style="stop-color:#EFBB81"/>
							<stop  offset="0.5011" style="stop-color:#F79E57"/>
							<stop  offset="1" style="stop-color:#FF7F2A"/>
						</linearGradient>
						<path class="st8" d="M805.3,667.7c2.8-2.9,4.2-6.7,3.7-10.6c-0.7-4.7-4.1-8.3-8.7-10.2c0.1-1,0.1-2.1-0.1-3.2
							c-1.1-5.2-6.2-8.5-11.3-7.5c-5.2,1.1-8.4,6.2-7.3,11.4c0.1,0.7,0.3,1.3,0.6,1.9c-4,3.1-6.2,7.6-5.5,12.3
							c0.3,2.2,1.2,4.1,2.6,5.8c-3,1.9-4.8,4.5-4.8,7.4c0,6,8,10.8,17.8,10.8s17.8-4.9,17.8-10.8
							C809.9,672.2,808.2,669.6,805.3,667.7z"/>
						<g>
							<g>
								<path class="st7" d="M791.8,701L791.8,701c-0.5-0.3-0.8-1.4-0.7-2.5c2.5-20.3,0.8-31.2-0.1-35c-0.2-0.9-0.1-1.9,0.3-2.5h0
									c0.5-0.8,1.2-0.4,1.5,0.8c1,4.5,2.9,16.5,0.2,37.7C792.9,700.6,792.3,701.3,791.8,701z"/>
							</g>
						</g>
					</g>
				</g>
			</g>
		</g>
		<g>
			<path class="st9" d="M538.2,615.2c0,19.9-17.9,43.1-17.9,43.1s-17.9-23.2-17.9-43.1c0-19.9,8-29.1,17.9-29.1
				C530.2,586.1,538.2,595.3,538.2,615.2z"/>
			<polygon class="st7" points="537,599.8 503.6,599.8 493.6,591.9 547,591.9 			"/>
			<path class="st7" d="M520.3,559c45.8,0,84.9,34.4,100.6,83c0.3-3.8,0.4-7.6,0.4-11.5c0-72.1-45.2-130.5-101-130.5
				s-101,58.4-101,130.5c0,3.9,0.1,7.7,0.4,11.5C435.4,593.4,474.6,559,520.3,559z"/>
			<path class="st10" d="M590.5,453.9c0,69.1-12.3,126.3-40.9,144.4c-12.7-4-18.3-6.2-28.3-6.2c-10,0-16.5,2.6-28.3,6.2
				c-28.6-18-42.9-75.3-42.9-144.3c0-90.2,71.2-173.9,71.2-173.9S590.5,363.7,590.5,453.9z"/>
			<linearGradient id="SVGID_5_" gradientUnits="userSpaceOnUse" x1="477.1029" y1="314.9136" x2="564.3658" y2="314.9136">
				<stop  offset="0" style="stop-color:#EFBB81"/>
				<stop  offset="0.5011" style="stop-color:#F79E57"/>
				<stop  offset="1" style="stop-color:#FF7F2A"/>
			</linearGradient>
			<path class="st11" d="M520.3,345.8c15.2,0,29.9,1.4,44,4.1c-19.6-41.5-43-69.9-43-69.9s-24.1,28.3-44.2,69.7
				C490.9,347.2,505.4,345.8,520.3,345.8z"/>
			<path class="st0" d="M520.3,356.8c17.5,0,34.2,1.9,49.5,5.2c-1.8-4.2-3.6-8.2-5.4-12.1c-13.8-2.7-28.6-4.1-44.1-4.1
				c-15.2,0-29.7,1.4-43.2,3.9c-1.9,3.9-3.8,8-5.6,12.1C486.5,358.6,503,356.8,520.3,356.8z"/>
			<path class="st12" d="M521.3,280c0,0-0.5,0.6-1.5,1.8V592c0.5,0,1,0,1.5,0c10,0,15.6,2.3,28.3,6.2c28.7-18,40.9-75.3,40.9-144.4
				C590.5,363.7,521.3,280,521.3,280z"/>
			<path class="st0" d="M533.3,575.9c0,35.3-13,63.9-13,63.9s-13-28.6-13-63.9s13-63.9,13-63.9S533.3,540.6,533.3,575.9z"/>
			<circle class="st0" cx="520.3" cy="413.3" r="28"/>
			<circle class="st13" cx="520.3" cy="413.3" r="23"/>
		</g>
		<path class="st14" d="M461.7,621.4c-10.1,0-19.1,2.9-25.7,7.7c-2.4-1.7-5.1-3.2-8.1-4.4c-3.8-11.2-18-19.5-34.9-19.5
			c-12.8,0-24,4.7-30.4,11.8c-6.6-5.4-16.3-8.8-27.2-8.8c-19.9,0-36,11.4-36,25.5c0,0.1,0,0.3,0,0.4c-10.8,4.4-18,12.7-18,22.1
			c0,14.1,16.1,25.5,36,25.5c2.1,0,4.1-0.1,6.1-0.4c3.7,0.9,7.8,1.4,11.9,1.4c14.9,0,27.7-6.5,33.2-15.7c4.7-1.1,9-3,12.6-5.3
			c6.5,6.4,17.1,10.5,29.1,10.5c10.1,0,19.1-2.9,25.7-7.7c6.5,4.7,15.6,7.7,25.7,7.7c19.9,0,36-11.4,36-25.5
			C497.7,632.8,481.6,621.4,461.7,621.4z"/>
		<path class="st14" d="M700.4,662.4c3.4-2,5.4-4.4,5.4-6.9c0-3.9-4.6-7.4-11.7-9.7c0.2-0.6,0.2-1.3,0.2-1.9
			c0-9.1-16-16.5-35.8-16.5c-11.9,0-22.5,2.7-29,6.9c-4.6-0.7-9.8-1.1-15.3-1.1c-16.2,0-30,3.5-34.7,8.3c-2.4-0.7-5.1-1.1-8-1.1
			c-9.5,0-17.4,4.3-19,10c-10.6,1.1-18.7,6.3-18.7,12.6c0,7.1,10.3,12.8,23.1,12.8c5.5,0,10.5-1.1,14.4-2.8
			c2.8,5.7,9.3,9.7,16.9,9.7c6.1,0,11.6-2.6,14.9-6.6c7.4,5.8,20.1,9.6,34.6,9.6c4.9,0,9.5-0.4,13.8-1.2c6,3.3,14.7,5.4,24.3,5.4
			c18.1,0,32.7-7.3,32.7-16.4C708.7,669.1,705.6,665.3,700.4,662.4z"/>
	</g>
	<path class="st0" d="M382.2,374.8c5.7,0,11,0.5,15.6,1.3c2.9-0.8,6.2-1.4,9.8-1.8c1.4-5.2,15.2-9.2,32.1-9.2
		c17.8,0,32.2,4.5,32.2,10.1c0,0.2,0,0.4,0,0.6c11.3,1.6,19.2,5.1,19.2,9.2c0,5.6-14.4,10.1-32.2,10.1c-8.7,0-16.6-1.1-22.4-2.8
		c-5,1-11,1.6-17.5,1.6c-5.7,0-11-0.5-15.6-1.3c-5.7,1.6-13.1,2.5-21.2,2.5c-17.8,0-32.2-4.5-32.2-10.1
		C350,379.3,364.4,374.8,382.2,374.8z"/>
</g>
<g>
	<g>
		<g>
			<polygon class="st1" points="3192.7,-429.5 3192.7,-635.3 3275.1,-635.3 3275.1,-783.6 3415.8,-783.6 3415.8,-429.5 			"/>
			<g>
				<rect x="3289.1" y="-759.1" class="st2" width="28.8" height="23"/>
				<rect x="3332.3" y="-759.1" class="st2" width="28.8" height="23"/>
				<rect x="3375.5" y="-759.1" class="st2" width="28.8" height="23"/>
				<rect x="3289.1" y="-723.1" class="st2" width="28.8" height="23"/>
				<rect x="3332.3" y="-723.1" class="st2" width="28.8" height="23"/>
				<rect x="3375.5" y="-723.1" class="st2" width="28.8" height="23"/>
				<rect x="3289.1" y="-687.1" class="st2" width="28.8" height="23"/>
				<rect x="3332.3" y="-687.1" class="st2" width="28.8" height="23"/>
				<rect x="3375.5" y="-687.1" class="st2" width="28.8" height="23"/>
				<rect x="3289.1" y="-651.2" class="st2" width="28.8" height="23"/>
				<rect x="3332.3" y="-651.2" class="st2" width="28.8" height="23"/>
				<rect x="3375.5" y="-651.2" class="st2" width="28.8" height="23"/>
				<rect x="3289.1" y="-615.2" class="st2" width="28.8" height="23"/>
				<rect x="3245.9" y="-615.2" class="st2" width="28.8" height="23"/>
				<rect x="3202.8" y="-615.2" class="st2" width="28.8" height="23"/>
				<rect x="3332.3" y="-615.2" class="st2" width="28.8" height="23"/>
				<rect x="3375.5" y="-615.2" class="st2" width="28.8" height="23"/>
				<rect x="3289.1" y="-579.2" class="st2" width="28.8" height="23"/>
				<rect x="3245.9" y="-579.2" class="st2" width="28.8" height="23"/>
				<rect x="3202.8" y="-579.2" class="st2" width="28.8" height="23"/>
				<rect x="3332.3" y="-579.2" class="st2" width="28.8" height="23"/>
				<rect x="3375.5" y="-579.2" class="st2" width="28.8" height="23"/>
				<rect x="3289.1" y="-543.2" class="st2" width="28.8" height="23"/>
				<rect x="3245.9" y="-543.2" class="st2" width="28.8" height="23"/>
				<rect x="3202.8" y="-543.2" class="st2" width="28.8" height="23"/>
				<rect x="3332.3" y="-543.2" class="st2" width="28.8" height="23"/>
				<rect x="3375.5" y="-543.2" class="st2" width="28.8" height="23"/>
				<rect x="3289.1" y="-507.2" class="st2" width="28.8" height="23"/>
				<rect x="3245.9" y="-507.2" class="st2" width="28.8" height="23"/>
				<rect x="3202.8" y="-507.2" class="st2" width="28.8" height="23"/>
				<rect x="3332.3" y="-507.2" class="st2" width="28.8" height="23"/>
				<rect x="3375.5" y="-507.2" class="st2" width="28.8" height="23"/>
			</g>
		</g>
		<g>
			<polygon class="st1" points="3664.7,-432.4 3664.7,-561.9 3728,-561.9 3728,-711.6 3824.5,-711.6 3824.5,-641.1 3880.6,-641.1 
				3880.6,-432.4 			"/>
			<g>
				<rect x="3742.4" y="-692.9" class="st2" width="28.8" height="23"/>
				<rect x="3782.7" y="-692.9" class="st2" width="28.8" height="23"/>
				<rect x="3742.4" y="-549" class="st2" width="28.8" height="23"/>
				<rect x="3702.1" y="-549" class="st2" width="28.8" height="23"/>
				<rect x="3702.1" y="-513" class="st2" width="28.8" height="23"/>
				<rect x="3782.7" y="-549" class="st2" width="28.8" height="23"/>
				<rect x="3742.4" y="-656.9" class="st2" width="28.8" height="23"/>
				<rect x="3782.7" y="-656.9" class="st2" width="28.8" height="23"/>
				<rect x="3742.4" y="-620.9" class="st2" width="28.8" height="23"/>
				<rect x="3782.7" y="-620.9" class="st2" width="28.8" height="23"/>
				<rect x="3823" y="-620.9" class="st2" width="28.8" height="23"/>
				<rect x="3823" y="-585" class="st2" width="28.8" height="23"/>
				<rect x="3823" y="-549" class="st2" width="28.8" height="23"/>
				<rect x="3823" y="-513" class="st2" width="28.8" height="23"/>
				<rect x="3742.4" y="-585" class="st2" width="28.8" height="23"/>
				<rect x="3782.7" y="-585" class="st2" width="28.8" height="23"/>
				<rect x="3742.4" y="-513" class="st2" width="28.8" height="23"/>
				<rect x="3782.7" y="-513" class="st2" width="28.8" height="23"/>
			</g>
		</g>
		<g>
			<g>
				<linearGradient id="SVGID_6_" gradientUnits="userSpaceOnUse" x1="3533.4712" y1="-524.4166" x2="3541.8284" y2="-392.7176">
					<stop  offset="0" style="stop-color:#91B3FF"/>
					<stop  offset="0.4022" style="stop-color:#6791F2"/>
					<stop  offset="0.7939" style="stop-color:#3B6CE4"/>
				</linearGradient>
				<path class="st15" d="M3122.2-395c0,0,164.1-131,411.6-131c233.1,0,427.4,131,427.4,131s-65.5-24.7-204.4-27.3
					c-76.3-1.4-132.4,24.5-225.9,24.5c-87.8,0-149.8-12.1-243.2-15.8C3201.2-417.2,3122.2-395,3122.2-395z"/>
				<linearGradient id="SVGID_7_" gradientUnits="userSpaceOnUse" x1="3549.1763" y1="-527.4014" x2="3553.1592" y2="-464.6341">
					<stop  offset="0" style="stop-color:#91B3FF"/>
					<stop  offset="0.2484" style="stop-color:#6795EC"/>
					<stop  offset="0.7939" style="stop-color:#004CBF"/>
				</linearGradient>
				<path class="st16" d="M3458.9-521.9c-5.5,3.8-8.6,8.1-8.6,12.5c0,17.1,44.8,30.9,100,30.9c55.2,0,100-13.9,100-30.9
					c0-2.2-0.8-4.4-2.3-6.6c-36.5-6.2-74.8-10-114.3-10C3507.9-526,3482.9-524.5,3458.9-521.9z"/>
				
					<ellipse transform="matrix(0.9596 -0.2814 0.2814 0.9596 264.3493 930.2936)" class="st5" cx="3371.9" cy="-455.4" rx="46.8" ry="15.8"/>
				
					<ellipse transform="matrix(0.2923 -0.9563 0.9563 0.2923 2955.2581 3124.2131)" class="st5" cx="3588.5" cy="-434.6" rx="12.2" ry="30.2"/>
			</g>
			<g>
				<g>
					<linearGradient id="SVGID_8_" gradientUnits="userSpaceOnUse" x1="3773.6511" y1="-496.6312" x2="3736.6982" y2="-546.9164">
						<stop  offset="0" style="stop-color:#EFBB81"/>
						<stop  offset="0.5011" style="stop-color:#F79E57"/>
						<stop  offset="1" style="stop-color:#FF7F2A"/>
					</linearGradient>
					<path class="st17" d="M3779.4-518c4.9-5.1,7.4-11.8,6.4-18.6c-1.2-8.2-7.1-14.6-15.2-17.8c0.2-1.8,0.2-3.7-0.2-5.6
						c-1.9-9.1-10.8-15-19.8-13.1s-14.8,10.8-12.9,19.9c0.2,1.2,0.6,2.3,1.1,3.3c-6.9,5.4-10.9,13.4-9.7,21.6
						c0.6,3.8,2.1,7.2,4.5,10.1c-5.2,3.4-8.4,8-8.4,13c0,10.5,14,19,31.2,19c17.2,0,31.2-8.5,31.2-19
						C3787.6-510.1,3784.5-514.6,3779.4-518z"/>
					<g>
						<g>
							<path class="st7" d="M3755.8-459.6L3755.8-459.6c-0.9-0.5-1.5-2.5-1.2-4.3c4.4-35.6,1.3-54.8-0.2-61.3
								c-0.4-1.6-0.1-3.4,0.6-4.4l0,0c0.9-1.3,2.1-0.7,2.6,1.4c1.8,8,5.1,28.9,0.4,66.1C3757.7-460.3,3756.7-459.1,3755.8-459.6z"/>
						</g>
					</g>
				</g>
				<g>
					<linearGradient id="SVGID_9_" gradientUnits="userSpaceOnUse" x1="3831.9814" y1="-459.1021" x2="3810.8984" y2="-487.7917">
						<stop  offset="0" style="stop-color:#EFBB81"/>
						<stop  offset="0.5011" style="stop-color:#F79E57"/>
						<stop  offset="1" style="stop-color:#FF7F2A"/>
					</linearGradient>
					<path class="st18" d="M3835.3-471.3c2.8-2.9,4.2-6.7,3.7-10.6c-0.7-4.7-4.1-8.3-8.7-10.2c0.1-1,0.1-2.1-0.1-3.2
						c-1.1-5.2-6.2-8.5-11.3-7.5c-5.2,1.1-8.4,6.2-7.3,11.4c0.1,0.7,0.3,1.3,0.6,1.9c-4,3.1-6.2,7.6-5.5,12.3
						c0.3,2.2,1.2,4.1,2.6,5.8c-3,1.9-4.8,4.5-4.8,7.4c0,6,8,10.8,17.8,10.8s17.8-4.9,17.8-10.8
						C3839.9-466.8,3838.2-469.4,3835.3-471.3z"/>
					<g>
						<g>
							<path class="st7" d="M3821.8-438L3821.8-438c-0.5-0.3-0.8-1.4-0.7-2.5c2.5-20.3,0.8-31.2-0.1-35c-0.2-0.9-0.1-1.9,0.3-2.5
								l0,0c0.5-0.8,1.2-0.4,1.5,0.8c1,4.5,2.9,16.5,0.2,37.7C3822.9-438.4,3822.3-437.7,3821.8-438z"/>
						</g>
					</g>
				</g>
			</g>
		</g>
	</g>
	<g>
		<path class="st9" d="M3568.2-523.8c0,19.9-17.9,43.1-17.9,43.1s-17.9-23.2-17.9-43.1c0-19.9,8-29.1,17.9-29.1
			C3560.2-552.9,3568.2-543.7,3568.2-523.8z"/>
		<polygon class="st7" points="3567,-539.2 3533.6,-539.2 3523.6,-547.1 3577,-547.1 		"/>
		<path class="st7" d="M3550.3-580c45.8,0,84.9,34.4,100.6,83c0.3-3.8,0.4-7.6,0.4-11.5c0-72.1-45.2-130.5-101-130.5
			c-55.8,0-101,58.4-101,130.5c0,3.9,0.1,7.7,0.4,11.5C3465.4-545.6,3504.6-580,3550.3-580z"/>
		<linearGradient id="SVGID_10_" gradientUnits="userSpaceOnUse" x1="3480.1328" y1="-699.903" x2="3620.5046" y2="-699.903">
			<stop  offset="0" style="stop-color:#FFFFFF"/>
			<stop  offset="0.8275" style="stop-color:#D5D5D5"/>
			<stop  offset="1" style="stop-color:#CCCCCC"/>
		</linearGradient>
		<path class="st19" d="M3620.5-685.1c0,69.1-12.3,126.3-40.9,144.4c-12.7-4-18.3-6.2-28.3-6.2c-10,0-16.5,2.6-28.3,6.2
			c-28.6-18-42.9-75.3-42.9-144.3c0-90.2,71.2-173.9,71.2-173.9S3620.5-775.3,3620.5-685.1z"/>
		<linearGradient id="SVGID_11_" gradientUnits="userSpaceOnUse" x1="3507.103" y1="-824.0864" x2="3594.366" y2="-824.0864">
			<stop  offset="0" style="stop-color:#EFBB81"/>
			<stop  offset="0.5011" style="stop-color:#F79E57"/>
			<stop  offset="1" style="stop-color:#FF7F2A"/>
		</linearGradient>
		<path class="st20" d="M3550.3-793.2c15.2,0,29.9,1.4,44,4.1c-19.6-41.5-43-69.9-43-69.9s-24.1,28.3-44.2,69.7
			C3520.9-791.8,3535.4-793.2,3550.3-793.2z"/>
		<path class="st0" d="M3550.3-782.2c17.5,0,34.2,1.9,49.5,5.2c-1.8-4.2-3.6-8.2-5.4-12.1c-13.8-2.7-28.6-4.1-44.1-4.1
			c-15.2,0-29.7,1.4-43.2,3.9c-1.9,3.9-3.8,8-5.6,12.1C3516.5-780.4,3533-782.2,3550.3-782.2z"/>
		<path class="st12" d="M3551.3-859c0,0-0.5,0.6-1.5,1.8V-547c0.5,0,1,0,1.5,0c10,0,15.6,2.3,28.3,6.2c28.7-18,40.9-75.3,40.9-144.4
			C3620.5-775.3,3551.3-859,3551.3-859z"/>
		<path class="st0" d="M3563.3-563.1c0,35.3-13,63.9-13,63.9s-13-28.6-13-63.9s13-63.9,13-63.9S3563.3-598.4,3563.3-563.1z"/>
		<circle class="st0" cx="3550.3" cy="-725.7" r="28"/>
		<circle class="st13" cx="3550.3" cy="-725.7" r="23"/>
	</g>
	<path class="st14" d="M3491.7-517.6c-10.1,0-19.1,2.9-25.7,7.7c-2.4-1.7-5.1-3.2-8.1-4.4c-3.8-11.2-18-19.5-34.9-19.5
		c-12.8,0-24,4.7-30.4,11.8c-6.6-5.4-16.3-8.8-27.2-8.8c-19.9,0-36,11.4-36,25.5c0,0.1,0,0.3,0,0.4c-10.8,4.4-18,12.7-18,22.1
		c0,14.1,16.1,25.5,36,25.5c2.1,0,4.1-0.1,6.1-0.4c3.7,0.9,7.8,1.4,11.9,1.4c14.9,0,27.7-6.5,33.2-15.7c4.7-1.1,9-3,12.6-5.3
		c6.5,6.4,17.1,10.5,29.1,10.5c10.1,0,19.1-2.9,25.7-7.7c6.5,4.7,15.6,7.7,25.7,7.7c19.9,0,36-11.4,36-25.5
		C3527.7-506.2,3511.6-517.6,3491.7-517.6z"/>
	<path class="st14" d="M3730.4-476.6c3.4-2,5.4-4.4,5.4-6.9c0-3.9-4.6-7.4-11.7-9.7c0.2-0.6,0.2-1.3,0.2-1.9
		c0-9.1-16-16.5-35.8-16.5c-11.9,0-22.5,2.7-29,6.9c-4.6-0.7-9.8-1.1-15.3-1.1c-16.2,0-30,3.5-34.7,8.3c-2.4-0.7-5.1-1.1-8-1.1
		c-9.5,0-17.4,4.3-19,10c-10.6,1.1-18.7,6.3-18.7,12.6c0,7.1,10.3,12.8,23.1,12.8c5.5,0,10.5-1.1,14.4-2.8c2.8,5.7,9.3,9.7,16.9,9.7
		c6.1,0,11.6-2.6,14.9-6.6c7.4,5.8,20.1,9.6,34.6,9.6c4.9,0,9.5-0.4,13.8-1.2c6,3.3,14.7,5.4,24.3,5.4c18.1,0,32.7-7.3,32.7-16.4
		C3738.7-469.9,3735.6-473.7,3730.4-476.6z"/>
</g>
</svg>
